<?xml version="1.0"?>
<svg width="1000" height="1000" xmlns="http://www.w3.org/2000/svg" xmlns:svg="http://www.w3.org/2000/svg">
 <metadata>Svg Vector Icons : http://www.onlinewebfonts.com/icon</metadata>
 <g class="layer">
  <title>Layer 1</title>
  <g id="svg_1">
   <g id="svg_2" transform="translate(0.000000,511.000000) scale(0.100000,-0.100000)">
    <path fill="#ff7f00" id="svg_3" d="m3706,4657.6c-521.2,-86.9 -847.4,-256.7 -1121.6,-583c-303.1,-361 -494.2,-957.5 -554,-1721.9l-13.5,-183.4l-225.9,-5.8l-227.8,-5.8l0,-152.5l0,-154.4l2470.9,0l2470.9,0l0,154.4l0,154.4l-212.3,0c-156.3,0 -212.3,5.8 -212.3,25.1c0,88.8 -46.3,488.4 -79.1,687.2c-162.2,974.9 -598.4,1536.6 -1343.6,1733.5c-164.1,42.5 -235.5,50.2 -546.3,54c-196.9,4 -378.4,4 -405.4,-1.8z"/>
    <path fill="#ff7f00" id="svg_4" d="m7634.3,2781.3c-629.3,-399.6 -872.5,-1200.7 -569.5,-1868.6c125.5,-278 384.2,-557.9 635.1,-691.1l137.1,-71.4l-1.9,-1094.5c-1.9,-602.3 -7.7,-1171.8 -15.5,-1264.4l-11.6,-169.9l-268.3,318.5c-146.7,175.7 -278,330.1 -293.4,339.8c-21.2,19.3 -1025,251 -1083,251c-19.3,0 -25.1,-81.1 -25.1,-337.8l0,-337.8l-270.2,0l-270.3,0l0,403.4l0,403.5l-148.6,32.8l-150.6,32.8l-204.6,202.7l-204.6,202.7l-305,-330.1l-305,-330.1l-233.6,1.9l-233.6,0l-299.1,326.1l-299.3,326.2l-202.7,-198.8l-202.7,-200.7l-158.3,-32.8l-160.2,-34.7l0,-401.5l0,-403.4l-270.3,0l-270.3,0l0,337.8c0,212.3 -7.7,337.8 -19.3,337.8c-23.2,0 -1069.4,-231.7 -1071.4,-237.4c-1.9,-2 -171.8,-608.1 -376.4,-1345.5c-204.5,-737.6 -376.3,-1353.4 -382.1,-1365c-5.8,-19.3 944,-25.1 4714,-25.1c2596.4,0 4721.7,3.9 4721.7,11.6c0,5.8 -123.6,154.4 -274.1,332l-272.2,322.4l11.6,577.2c7.7,318.5 13.5,1206.5 13.5,1974.8c0,1104.2 5.8,1395.7 25.1,1395.7c11.6,0 90.7,42.5 171.8,94.6c681.4,438.2 889.9,1324.2 476.8,2023.1c-94.6,156.4 -289.6,359 -459.4,471l-146.7,98.4l-11.6,-639c-5.8,-351.3 -13.5,-642.8 -19.3,-646.7c-3.9,-3.9 -291.5,-1.9 -639,3.9l-633.2,9.7l0,633.2c0,349.4 -5.8,635.1 -13.5,635.1c-9.5,-0.1 -67.5,-32.9 -131.2,-73.4zm-5144.5,-5553.8l0,-281.8l-264.5,5.8l-266.4,5.8l-5.8,276l-5.8,274.1l272.2,0l270.3,0l0,-279.9zm3648.5,0l0,-281.8l-264.5,5.8l-266.4,5.8l-5.8,276l-5.8,274.1l272.2,0l270.3,0l0,-279.9z"/>
    <path fill="#ff7f00" id="svg_5" d="m2238.9,1422.3c0,-13.5 17.4,-98.4 36.7,-189.2c98.5,-442.1 316.6,-959.4 556,-1320.4c150.6,-227.8 463.3,-550.2 627.4,-646.7c200.8,-115.8 337.8,-162.1 528.9,-171.8c208.5,-9.6 330.1,13.5 523.1,104.2c370.6,175.7 727.8,581.1 998,1137c150.6,305 291.5,731.6 347.5,1048.2l11.6,61.8l-1814.6,0c-1438.2,0.1 -1814.6,-5.7 -1814.6,-23.1z"/>
   </g>
  </g>
 </g>
</svg>