<?xml version="1.0"?>
<svg width="1000" height="1000" xmlns="http://www.w3.org/2000/svg" xmlns:svg="http://www.w3.org/2000/svg">
 <metadata>Svg Vector Icons : http://www.onlinewebfonts.com/icon</metadata>
 <g class="layer">
  <title>Layer 1</title>
  <g id="svg_1">
   <g id="svg_2" transform="translate(0.000000,512.000000) scale(0.100000,-0.100000)">
    <path fill="#ff0000" id="svg_3" d="m1024.3,4979.8c-107.2,-47.8 -164.6,-101.4 -216.2,-199l-42.1,-76.6l0,-4583.2l0,-4583.3l42.1,-76.6c51.7,-97.6 109.1,-151.2 216.2,-199c84.2,-38.3 116.7,-40.2 1871.6,-40.2l1783.6,0l0,181.8l0,181.8l-1733.8,0c-1157.8,0 -1745.3,5.7 -1770.2,19.1c-36.4,21 -36.4,91.8 -36.4,4516.3c0,4424.5 0,4495.2 36.4,4516.3c51.7,26.8 7606.9,26.8 7658.6,0c36.4,-21.1 36.4,-91.9 36.4,-4516.3c0,-4424.5 0,-4495.3 -36.4,-4516.3c-24.9,-11.5 -306.2,-19.1 -784.6,-19.1l-748.2,0l0,-181.8l0,-183.7l819.1,5.7c717.6,5.7 824.8,9.6 874.6,38.3c80.4,42.1 158.8,126.3 202.8,210.5c36.4,68.9 36.4,189.5 36.4,4648.4l0,4575.6l-49.7,93.8c-55.5,99.5 -153.1,178 -258.3,208.6c-40.2,11.5 -1473.5,19.1 -3940.3,19.1c-3860.2,0 -3875.5,-1.9 -3961.6,-40.2z"/>
    <path fill="#ff0000" id="svg_4" d="m1979.2,3952.2c-80.4,-40.2 -116.7,-76.6 -164.6,-156.9l-63.1,-103.3l0,-3618.9c0,-3471.4 1.9,-3620.7 36.4,-3695.3c49.8,-111 176.1,-212.4 296.6,-237.3c67,-15.3 489.9,-19.1 1341.5,-15.3l1243.9,5.7l0,181.8l0,181.8l-1272.6,9.6l-1272.6,9.6l-5.8,3540.3c-3.8,3310.7 -1.9,3542.2 28.7,3565.2c42.1,30.6 5670.3,34.4 5729.6,3.8c36.4,-21.1 36.4,-80.4 36.4,-3540.3c0,-1934.7 -5.7,-3530.7 -11.5,-3548c-9.6,-26.8 -55.5,-30.6 -306.2,-30.6l-294.7,0l0,-193.3l0,-193.3l331.1,7.7c361.7,5.7 419.1,23 533.9,143.5c118.7,124.4 111,-153.1 111,3810.1l0,3613.1l-61.2,103.3c-49.7,80.4 -86.1,116.7 -166.5,156.9l-101.4,53.6l-2933.7,0l-2933.7,0l-101.5,-53.5z"/>
    <path fill="#ff0000" id="svg_5" d="m2708.4,2187.7l0,-172.2l641.1,0l641.1,0l0,172.2l0,172.3l-641.1,0l-641.1,0l0,-172.3z"/>
    <path fill="#ff0000" id="svg_6" d="m4354.1,2187.7l0,-172.2l641.1,0l641.1,0l0,172.2l0,172.3l-641.1,0l-641.1,0l0,-172.3z"/>
    <path fill="#ff0000" id="svg_7" d="m5999.9,2187.7l0,-172.2l650.7,0l650.6,0l0,172.2l0,172.3l-650.6,0l-650.7,0l0,-172.3z"/>
    <path fill="#ff0000" id="svg_8" d="m2708.4,896l0,-162.7l2292.6,3.8l2290.7,5.7l5.7,158.8l5.7,156.9l-2298.3,0l-2296.4,0l0,-162.5z"/>
    <path fill="#ff0000" id="svg_9" d="m2708.4,245.4c0,-132 5.7,-162.7 28.7,-162.7c15.3,-1.9 989.4,-1.9 2162.5,-1.9s2195,0 2267.7,1.9l135.9,0l-5.7,158.8l-5.7,156.9l-2290.8,5.8l-2292.6,3.8l0,-162.6z"/>
    <path fill="#ff0000" id="svg_10" d="m2708.4,-424.4l0,-162.7l981.7,3.8l979.8,5.7l5.7,158.8l5.7,156.9l-987.5,0l-985.6,0l0,-162.5l0.2,0z"/>
    <path fill="#ff0000" id="svg_11" d="m5722.4,-386.2c-254.5,-55.5 -532,-227.7 -687,-424.8c-185.6,-235.4 -267.9,-480.3 -266,-780.8c1.9,-223.9 57.4,-426.7 168.4,-610.5l67,-111l0,-1113.7l1.9,-1111.9l472.7,484.2l472.7,484.2l497.6,-478.4l497.6,-478.4l9.6,1123.3l9.6,1123.3l51.7,76.6c162.7,241.1 218.1,646.8 130.1,966.4c-32.5,122.5 -137.8,319.6 -227.7,434.4c-271.9,338.7 -767.6,510.9 -1198.2,417.1z"/>
    <path fill="#ff0000" id="svg_12" d="m2708.4,-1075.1l0,-162.7l813.3,0l813.3,0l0,162.7l0,162.7l-813.3,0l-813.3,0l0,-162.7z"/>
    <path fill="#ff0000" id="svg_13" d="m2708.4,-1744.9l0,-162.7l813.3,0l813.3,0l0,162.7l0,162.7l-813.3,0l-813.3,0l0,-162.7z"/>
   </g>
  </g>
 </g>
</svg>