<?xml version="1.0" encoding="iso-8859-1"?>
<!-- Generator: Adobe Illustrator 19.0.0, SVG Export Plug-In . SVG Version: 6.00 Build 0)  -->
<svg version="1.1" id="Layer_1" xmlns="http://www.w3.org/2000/svg" xmlns:xlink="http://www.w3.org/1999/xlink" x="0px" y="0px"
	 viewBox="0 0 512 512" style="enable-background:new 0 0 512 512;" xml:space="preserve">
<path style="fill:#F2F2F2;" d="M482.814,407.864H29.186c-10.486,0-18.987-8.501-18.987-18.987V123.123
	c0-10.486,8.501-18.987,18.987-18.987h453.629c10.486,0,18.987,8.501,18.987,18.987v265.756
	C501.801,399.364,493.3,407.864,482.814,407.864z"/>
<circle style="fill:#72BEDE;" cx="165.227" cy="256" r="107.092"/>
<path style="fill:#F2F2F2;" d="M230.603,262.244L230.603,262.244c-14.776,1.989-29.81,0.613-43.98-4.026l-14.911-4.881l5.102-18.271
	c1.389-4.977,3.878-9.579,7.282-13.467c5.515-6.298,8.555-14.384,8.555-22.755c0-11.48-9.011-20.94-20.478-21.497l-24.292-1.179
	c-11.269-0.547-18.005,12.36-11.111,21.292l0,0c9.11,11.803,15.435,25.51,18.503,40.101l3.228,15.354l-18.374,4.718
	c-5.005,1.285-10.235,1.431-15.304,0.426l0,0c-8.211-1.627-16.735-0.216-23.984,3.969l0,0c-9.942,5.74-13.629,18.274-8.378,28.483
	l11.124,21.627c5.161,10.033,19.707,9.413,23.995-1.024l0,0c5.666-13.791,14.375-26.123,25.477-36.075l11.683-10.473l13.272,13.554
	c3.616,3.692,6.356,8.148,8.022,13.041c2.697,7.925,8.18,14.601,15.429,18.787l0,0c9.942,5.74,22.64,2.666,28.856-6.986
	l13.167-20.448C249.596,273.027,241.785,260.74,230.603,262.244z"/>
<circle style="fill:#72BEDE;" cx="164.289" cy="256.938" r="21.602"/>
<g>
	<path style="fill:#534741;" d="M482.815,93.937H29.185C13.093,93.937,0,107.029,0,123.123v265.755
		c0,16.093,13.093,29.186,29.185,29.186h453.63c16.092,0,29.185-13.093,29.185-29.186V123.123
		C512,107.029,498.907,93.937,482.815,93.937z M491.602,388.877c0,4.845-3.942,8.788-8.787,8.788H29.185
		c-4.845,0-8.787-3.942-8.787-8.788V123.123c0-4.845,3.942-8.788,8.787-8.788h453.63c4.845,0,8.787,3.942,8.787,8.788
		L491.602,388.877L491.602,388.877z"/>
	<path style="fill:#534741;" d="M165.227,138.709c-64.674,0-117.291,52.617-117.291,117.291s52.617,117.291,117.291,117.291
		S282.518,320.674,282.518,256S229.901,138.709,165.227,138.709z M165.227,352.892c-53.426,0-96.892-43.466-96.892-96.892
		s43.466-96.892,96.892-96.892S262.12,202.574,262.12,256S218.654,352.892,165.227,352.892z"/>
	<path style="fill:#534741;" d="M229.243,252.136c-11.264,1.517-22.867,0.816-33.891-2.002c-1.243-5.677-4.005-10.79-7.84-14.892
		c1.022-2.523,2.468-4.881,4.257-6.924c7.147-8.16,11.081-18.629,11.081-29.475c0-16.945-13.258-30.862-30.184-31.684l-24.291-1.179
		c-9.244-0.453-17.627,4.364-21.904,12.56s-3.424,17.833,2.224,25.151c6.783,8.789,11.772,18.574,14.875,29.144
		c-4.704,4.049-8.212,9.444-9.922,15.585c-2.285,0.198-4.6,0.078-6.844-0.367c-10.64-2.107-21.672-0.283-31.066,5.141
		c-14.675,8.472-20.099,26.913-12.347,41.981l11.124,21.627c4.069,7.911,11.968,12.71,20.788,12.71c0.346,0,0.694-0.007,1.041-0.021
		c9.236-0.395,17.155-5.951,20.67-14.502c4.25-10.345,10.288-19.619,17.974-27.634c2.942,0.902,6.063,1.389,9.298,1.389
		c2.924,0,5.754-0.405,8.446-1.147c1.567,2.072,2.812,4.394,3.646,6.848c3.495,10.269,10.593,18.911,19.985,24.333
		c4.998,2.885,10.461,4.264,15.855,4.264c10.443,0,20.627-5.167,26.675-14.561l13.167-20.447c5.006-7.773,5.034-17.448,0.074-25.249
		C247.178,254.983,238.401,250.908,229.243,252.136z M144.844,191.228c-0.978-1.267-0.697-2.466-0.288-3.25
		c0.409-0.784,1.206-1.696,2.829-1.623l24.291,1.179c6.042,0.294,10.774,5.261,10.774,11.309c0,5.901-2.142,11.596-6.03,16.036
		c-2.8,3.198-5.136,6.819-6.93,10.688c-1.694-0.28-3.431-0.432-5.204-0.432c-0.578,0-1.151,0.017-1.723,0.048
		C158.72,212.903,152.782,201.512,144.844,191.228z M118.148,307.238c-0.608,1.481-1.788,1.836-2.67,1.874
		c-0.882,0.035-2.089-0.215-2.821-1.639l-11.124-21.626c-2.767-5.379-0.83-11.962,4.407-14.986
		c5.111-2.951,11.115-3.943,16.901-2.798c3.914,0.775,7.946,1.007,11.937,0.719c0.934,2.318,2.133,4.501,3.56,6.513
		C129.792,284.674,123.018,295.385,118.148,307.238z M152.881,256.939c0-6.29,5.118-11.407,11.408-11.407
		s11.407,5.117,11.407,11.407s-5.117,11.408-11.407,11.408S152.881,263.229,152.881,256.939z M234.921,273.728
		c0.474,0.746,0.858,1.916-0.009,3.263l-13.168,20.448c-3.273,5.085-9.942,6.699-15.18,3.676
		c-5.111-2.951-8.972-7.652-10.873-13.239c-1.421-4.175-3.49-8.141-6.072-11.73c1.318-1.734,2.462-3.605,3.407-5.59
		c12.734,2.905,26.019,3.537,38.94,1.798C233.545,272.138,234.446,272.982,234.921,273.728z"/>
	<path style="fill:#534741;" d="M456.924,141.769H321.275c-5.632,0-10.199,4.566-10.199,10.199c0,5.633,4.567,10.199,10.199,10.199
		h135.649c5.632,0,10.199-4.566,10.199-10.199C467.124,146.335,462.556,141.769,456.924,141.769z"/>
	<path style="fill:#534741;" d="M456.924,193.785H321.275c-5.632,0-10.199,4.566-10.199,10.199c0,5.633,4.567,10.199,10.199,10.199
		h135.649c5.632,0,10.199-4.566,10.199-10.199C467.124,198.351,462.556,193.785,456.924,193.785z"/>
	<path style="fill:#534741;" d="M456.924,245.801H321.275c-5.632,0-10.199,4.566-10.199,10.199c0,5.633,4.567,10.199,10.199,10.199
		h135.649c5.632,0,10.199-4.566,10.199-10.199S462.556,245.801,456.924,245.801z"/>
	<path style="fill:#534741;" d="M456.924,297.817H321.275c-5.632,0-10.199,4.566-10.199,10.199c0,5.633,4.567,10.199,10.199,10.199
		h135.649c5.632,0,10.199-4.566,10.199-10.199C467.124,302.383,462.556,297.817,456.924,297.817z"/>
	<path style="fill:#534741;" d="M416.128,349.833h-94.853c-5.632,0-10.199,4.566-10.199,10.199c0,5.633,4.567,10.199,10.199,10.199
		h94.853c5.632,0,10.199-4.566,10.199-10.199C426.327,354.399,421.759,349.833,416.128,349.833z"/>
	<path style="fill:#534741;" d="M456.924,349.833h-5.1c-5.632,0-10.199,4.566-10.199,10.199c0,5.633,4.567,10.199,10.199,10.199h5.1
		c5.632,0,10.199-4.566,10.199-10.199C467.124,354.399,462.556,349.833,456.924,349.833z"/>
</g>
<g>
</g>
<g>
</g>
<g>
</g>
<g>
</g>
<g>
</g>
<g>
</g>
<g>
</g>
<g>
</g>
<g>
</g>
<g>
</g>
<g>
</g>
<g>
</g>
<g>
</g>
<g>
</g>
<g>
</g>
</svg>
