<?xml version="1.0"?>
<svg width="1000" height="1000" xmlns="http://www.w3.org/2000/svg" xmlns:svg="http://www.w3.org/2000/svg">
 <metadata>Svg Vector Icons : http://www.onlinewebfonts.com/icon</metadata>
 <g class="layer">
  <title>Layer 1</title>
  <g id="svg_1">
   <g id="svg_2" transform="translate(0,512) scale(0.10000000149011612,-0.10000000149011612) ">
    <path fill="#007f7f" stroke="#9ab211" id="svg_3" d="m387,4995.4c-117,-36.4 -226.2,-149.5 -262.7,-268.4c-23,-84.4 -26.8,-594.3 -23,-3834.3l5.8,-3738.4l42.2,-76.7c51.8,-95.9 111.2,-153.4 201.3,-191.7c63.3,-24.9 377.7,-28.8 2776,-28.8l2703.1,0l-145.7,176.4c-327.8,393 -529.1,807.1 -634.6,1299.8c-49.8,232 -49.8,880 0,1111.9c184.1,858.9 743.9,1608.5 1485.8,1982.3l99.7,49.8l0,368.1c0,218.5 -9.6,396.8 -23,444.8c-19.2,67.1 -195.5,253.1 -1288.3,1349.7c-717.1,720.9 -1305.6,1294.1 -1353.5,1322.9l-86.3,51.8l-1706.2,3.8c-1407.2,3.8 -1721.6,0 -1790.6,-23zm4426.6,-1821.3l1025.7,-1025.7l-1031.5,0l-1029.5,0l0,1025.7c0,563.6 1.9,1025.7 5.7,1025.7c2,0 466,-462.1 1029.6,-1025.7zm-2262.2,-393l0,-210.9l-824.4,0l-824.3,0l0,210.9l0,210.9l824.3,0l824.4,0l0,-210.9zm2453.9,-1648.8l0,-210.8l-2051.3,0l-2051.3,0l0,210.9l0,210.9l2051.3,0l2051.3,0l0,-211zm-805.2,-1629.5l0,-210.9l-1648.7,0l-1648.7,0l0,210.9l0,210.9l1648.7,0l1648.7,0l0,-210.9z"/>
    <path fill="#007f7f" stroke="#9ab211" id="svg_4" d="m7489.9,890.8c-425.6,-84.4 -780.3,-278 -1087,-596.2c-569.4,-588.6 -724.7,-1414.8 -412.2,-2183.6c113.1,-276.1 379.6,-634.6 584.7,-784.1l78.6,-57.5l0,-868.5c0,-740 3.8,-878 28.8,-939.4c76.7,-178.3 262.7,-272.2 460.1,-230c88.2,19.2 118.9,42.2 408.3,327.8l310.6,308.7l293.3,-289.5c159.1,-159.1 320.2,-302.9 356.6,-322.1c168.7,-84.4 406.4,-15.3 509.9,153.4l57.5,92l5.7,880l5.8,878l182.1,176.4c195.5,187.9 352.8,406.4 448.6,615.4c335.5,741.9 189.8,1633.4 -366.2,2225.8c-297.2,318.2 -707.4,542.6 -1123.4,615.4c-199.2,34.4 -561.6,34.4 -741.8,-2zm191.7,-1246.2c65.2,-40.3 107.4,-84.3 143.8,-155.3c51.8,-97.8 51.8,-97.8 63.3,-42.2c15.3,76.7 162.9,220.5 253,245.4c174.5,47.9 333.6,5.8 442.9,-118.8c230.1,-262.6 72.9,-642.2 -565.5,-1351.6l-143.9,-159.1l-93.9,92c-126.5,122.7 -385.3,437.1 -502.3,607.7c-237.7,347 -289.5,565.6 -174.5,749.6c122.8,199.4 375.8,257 577.1,132.3z"/>
   </g>
  </g>
 </g>
</svg>