<?xml version="1.0" encoding="utf-8"?>
<!-- Generator: Adobe Illustrator 18.1.1, SVG Export Plug-In . SVG Version: 6.00 Build 0)  -->
<svg version="1.1" id="圖層_1" xmlns="http://www.w3.org/2000/svg" xmlns:xlink="http://www.w3.org/1999/xlink" x="0px" y="0px"
	 viewBox="0 0 40.7 40.9" enable-background="new 0 0 40.7 40.9" xml:space="preserve">
<linearGradient id="SVGID_1_" gradientUnits="userSpaceOnUse" x1="0" y1="20.4337" x2="40.8675" y2="20.4337">
	<stop  offset="0" style="stop-color:#ECECEC"/>
	<stop  offset="0.5222" style="stop-color:#E0DFE0"/>
	<stop  offset="1" style="stop-color:#DFDFE1"/>
</linearGradient>
<path opacity="0.9" fill="url(#SVGID_1_)" d="M20.4,0C9.1,0,0,9.1,0,20.4c0,11.3,9.1,20.4,20.4,20.4s20.4-9.1,20.4-20.4
	C40.9,9.1,31.7,0,20.4,0z M27.8,26.7l-6.5,7.4c0,0,0,0,0,0c0,0,0,0,0,0c0,0,0,0,0,0c-0.1,0-0.1,0.1-0.2,0.1c0,0,0,0,0,0
	c0,0,0,0-0.1,0c0,0,0,0,0,0c-0.1,0.1-0.3,0.1-0.4,0.1l0,0l0,0c0,0,0,0,0,0l0,0c-0.1,0-0.3,0-0.4-0.1c0,0,0,0,0,0c0,0,0,0-0.1,0
	c0,0,0,0,0,0c-0.1,0-0.1-0.1-0.2-0.1c0,0,0,0,0,0c0,0,0,0-0.1,0c0,0,0,0,0,0l-6.5-7.4c-0.4-0.5-0.4-1.2,0.1-1.6
	c0.5-0.4,1.2-0.4,1.6,0.1l4.5,5.1V7.6c0-0.6,0.4-1.1,1-1.1s1,0.5,1,1.1v22.8l4.7-5.1c0.4-0.5,1.2-0.5,1.6-0.1
	C28.1,25.5,28.2,26.2,27.8,26.7z"/>
</svg>
