<?xml version="1.0" encoding="utf-8"?>
<!-- Generator: Adobe Illustrator 22.1.0, SVG Export Plug-In . SVG Version: 6.00 Build 0)  -->
<svg version="1.1" id="圖層_1" xmlns="http://www.w3.org/2000/svg" xmlns:xlink="http://www.w3.org/1999/xlink" x="0px" y="0px"
	 viewBox="0 0 250 80" style="enable-background:new 0 0 250 80;" xml:space="preserve">
<style type="text/css">
	.st0{fill:#FFFFFF;}
	.st1{opacity:0.6;}
	.st2{opacity:0.6;fill:#FFFFFF;}
</style>
<g>
	<g>
		<g>
			<path class="st0" d="M130.5,39.9L130.5,39.9l-0.5-0.4h1.9v-2.8h-9.7v2.8h1.8l-0.5,0.5l0,0c0.3,0.3,0.7,0.7,1,1h-4.3v0.7h13.4V41
				h-4.3C129.8,40.7,130.2,40.3,130.5,39.9z M130.9,37.4v1.5h-7.7v-1.5H130.9z M125.5,40.7c-0.4-0.4-0.8-0.8-1.2-1.1h5.4
				c-0.5,0.5-1.1,1.1-1.6,1.5h-3L125.5,40.7L125.5,40.7z"/>
			<polygon class="st0" points="132.7,27.7 131.8,27.7 131.8,33.5 127.5,33.5 127.5,27.6 126.7,27.6 126.7,33.5 122.3,33.5 
				122.3,27.7 121.5,27.7 121.5,34.2 132.7,34.2 			"/>
			<polygon class="st0" points="129.3,33.5 130,33.5 130,32.4 131.2,32.4 131.2,31.8 130,31.8 130,30.9 131.1,30.9 131.1,30.3 
				130,30.3 130,29.4 131.1,29.4 131.1,28.8 130,28.8 130,27.8 129.3,27.8 129.3,28.8 128.2,28.8 128.2,29.4 129.3,29.4 129.3,30.3 
				128.3,30.3 128.3,30.9 129.3,30.9 129.3,31.8 128.1,31.8 128.1,32.4 129.3,32.4 			"/>
			<rect x="120.9" y="35.1" class="st0" width="12.5" height="0.7"/>
			<polygon class="st0" points="124.2,33.5 124.9,33.5 124.9,32.4 126.1,32.4 126.1,31.8 124.9,31.8 124.9,30.9 125.9,30.9 
				125.9,30.3 124.9,30.3 124.9,29.4 126,29.4 126,28.8 124.9,28.8 124.9,27.8 124.2,27.8 124.2,28.8 123,28.8 123,29.4 124.2,29.4 
				124.2,30.3 123.1,30.3 123.1,30.9 124.2,30.9 124.2,31.8 123,31.8 123,32.4 124.2,32.4 			"/>
			<g>
				<path class="st0" d="M153.7,30.5L153.7,30.5l0.8-0.2l0,0l-0.1-0.2c-0.2-0.7-0.6-1.6-0.9-2.2l0,0l-0.8,0.3l0,0
					C153,28.8,153.4,29.8,153.7,30.5z"/>
				<path class="st0" d="M158.4,37.4h5.9v-0.8h-6v-1.1h4.7v-0.8h-4.7v-1.1h5.5v-0.8H160c0.3-0.3,0.8-1,1.2-1.5l0,0l-0.5-0.3h3.7
					v-0.8h-4.7v-2.5h-0.9v2.5h-2v-2.5h-0.9v2.5h-4.7V31h3.7l-0.5,0.4l0,0l0,0c0.1,0.1,0.2,0.2,0.3,0.4c0.3,0.3,0.6,0.7,0.8,1h-3.8
					v0.8h5.6v1.1h-4.7v0.8h4.7v1.1h-6v0.8h5.8c-1.6,1.2-3.3,2.4-6,3.3l0,0l0.3,0.9l0,0c3-1.2,4.3-2.1,5.9-3.3V42h1v-3.7
					c1.5,1.1,3.1,2.1,5.9,3.3l0,0l0.3-0.9l0,0C161.6,39.6,159.9,38.5,158.4,37.4z M156.6,32.7c-0.4-0.5-0.9-1.1-1.4-1.7h5.2
					c-0.4,0.5-1,1.3-1.5,1.8L156.6,32.7L156.6,32.7L156.6,32.7z"/>
				<path class="st0" d="M161.7,30.5c0.3-0.6,0.9-1.6,1.1-2.3l0,0l-0.8-0.3l0,0c-0.2,0.6-0.7,1.6-1.1,2.2l0,0L161.7,30.5L161.7,30.5
					z"/>
			</g>
			<g>
				<g>
					<path class="st0" d="M104.6,41.7l-0.8-0.2c0.4-1.3,0.7-2.9,0.9-4l0.8,0.1C105.2,38.8,104.9,40.5,104.6,41.7z M108.4,36.2
						c-0.8,0.1-2.6,0.3-3.9,0.4l-0.2-0.8c0,0,0.2-0.2,0.3-0.3c0.6-0.7,1.3-1.7,2-2.7c-0.7,0-1.4,0.1-2.2,0.2l-0.2-0.8
						c0,0,0.2-0.3,0.3-0.4c0.6-0.8,1.7-2.8,2.4-4.3l0.8,0.3c-0.7,1.4-1.7,3.3-2.3,4.2h1.8c0.5-0.8,0.9-1.5,1.3-2.2l0.7,0.4
						c-1.1,1.8-2.4,3.8-3.6,5.5l2.5-0.3c-0.2-0.6-0.5-1.2-0.7-1.6l0.7-0.3c0.4,0.8,0.9,2.2,1.3,3.1l-0.7,0.3L108.4,36.2z
						 M106.3,37.6h0.7c0.1,1,0.3,2.8,0.4,3.8l-0.8,0.1C106.5,40.4,106.4,38.6,106.3,37.6z M107.8,37.5l0.7-0.2
						c0.3,0.9,0.6,1.8,0.9,2.7l-0.7,0.2C108.3,39.3,108.1,38.5,107.8,37.5z M109,33.8V33h5.8l0.2-1.3h-4.7l0.8-4.2h0.9l-0.2,0.9h4.6
						l-0.7,4.6h2.1v0.8H109z M111.6,29.2l-0.4,1.8h3.9l0.3-1.8H111.6z"/>
					<path class="st0" d="M118.2,40l-0.4,0.8c-1.7-1.2-2.9-2.5-3.6-4.2v3.6c0,1.3-0.4,1.7-1.7,1.7H111l-0.2-0.8h1.3
						c1,0,1.2-0.2,1.2-1.1v-2.5c-0.9,0.7-2.6,2-3.1,2.4l-0.5-0.7c0.6-0.4,2.7-2,3.6-2.7v-2.7h0.8v0.7c0.2,0.8,0.6,1.6,0.9,2.2
						c0.7-0.6,1.4-1.6,1.9-2.4l0.6,0.5c-0.5,0.7-1.4,1.9-2.1,2.6C116.1,38.3,117,39.2,118.2,40"/>
					<path class="st0" d="M110.3,34.8l0.6-0.5c0.5,0.5,1.7,1.9,2.1,2.5l-0.6,0.5C111.9,36.8,110.7,35.3,110.3,34.8z"/>
				</g>
			</g>
			<path class="st0" d="M141.2,35.9h2.4v-3.5h-2.4V35.9z M142.9,33.1v2.1h-1v-2.1H142.9z"/>
			<rect x="141" y="30.2" class="st0" width="2.9" height="0.7"/>
			<path class="st0" d="M140.7,38.8c-1.1,0.7-3.2,1.7-4.6,2.3l0,0l0.4,0.9l0,0c1.4-0.6,3.5-1.6,4.7-2.4l0,0L140.7,38.8L140.7,38.8z"
				/>
			<path class="st0" d="M144,38.8L144,38.8l-0.4,0.8l0,0c1,0.5,3.5,1.6,4.7,2.2l0,0l0.4-0.9l0,0C147.6,40.4,145.2,39.3,144,38.8z"/>
			<path class="st0" d="M148.1,28.2L148.1,28.2h-2.7V29h1.8l-0.1,2.3h-1.6v0.8h1.6l-0.1,2.2h-1.6v0.8h1.5l-0.1,2.2h-1.9v-9.5h-5.4
				v9.5h-1.9v-2.2h1.6v-0.8h-1.6v-2.2h1.6v-0.8h-1.6v-2.4h1.9v-0.8l-2.7,0.1v0.3l0.2,8.8h-1.3v0.8h13.7v-0.8h-1.3L148.1,28.2z
				 M144.3,28.6v8.7h-3.8v-8.7C140.5,28.6,144.3,28.6,144.3,28.6z"/>
			<path class="st0" d="M173,27.8L173,27.8l-1-0.2l0,0l0,0c-0.2,0.6-0.5,1.2-0.8,2h-4.4v0.9h3.9c-1.1,1.9-2.5,3.7-4.3,5.2l0,0l0.4,1
				l0,0c0.9-0.8,1.7-1.5,2.4-2.3V42h1v-3.1h7v0.9c0,0.8-0.1,1-1.1,1h-1.9l0.2,0.8l0,0h2c1.3,0,1.8-0.4,1.8-1.7v-7.6h-7.5
				c0.4-0.6,0.8-1.3,1.2-2h8.2v-0.9h-7.7C172.5,29,172.8,28.4,173,27.8z M177.2,36.1v2h-7v-2H177.2z M170.2,35.3v-1.9h7v1.9H170.2z"
				/>
			<path class="st0" d="M192.3,38.5c0.8-0.6,1.7-1.3,2.5-1.9l0,0l-0.5-0.7l0,0c-0.8,0.7-1.6,1.4-2.5,1.9c-0.4-0.7-0.8-1.5-1.1-2.6
				h3.4v-6.6h-6.5v11.9c0,0.3,0,0.5-0.5,0.7l0,0l0.4,0.9l0,0c1.2-0.6,3.3-1.6,3.7-1.7l0,0l-0.1-0.9l-2.6,1.2v-5.3h1.3
				c0.9,3.2,2.2,4.8,5,6.3l0,0l0.6-0.8l0,0l0,0C194,40.1,193,39.4,192.3,38.5z M193.2,32.4v2h-4.7v-2H193.2z M188.5,31.5v-2.1h4.7
				v2.1H188.5z"/>
			<path class="st0" d="M186.6,29.4v-0.8h-4V42h0.9V29.4h2.2l-1.2,4l0,0l0,0c0.8,1.2,1.2,2.4,1.2,3.2c0,1.2-0.3,1.5-1.3,1.5h-0.7
				l0.2,0.8l0,0h0.7c1.5,0,2-0.6,2-2.2c0-1-0.4-2.3-1.2-3.6L186.6,29.4z"/>
			<path class="st0" d="M202.9,28.4L202.9,28.4L202,28l0,0c-1,2.7-2.6,4.9-4.9,6.8l0,0l0.6,0.8l0,0
				C200.1,33.6,201.8,31.3,202.9,28.4z"/>
			<path class="st0" d="M206,35.9L206,35.9l-0.8,0.5l2.1,3.4l-6.8,0.4c1.3-1.8,2.8-4.5,3.8-6.7l0,0l-0.9-0.4l0,0l0,0
				c-1,2.4-2.6,5.1-3.9,6.8c-0.2,0.3-0.4,0.4-1.1,0.5l0,0l0.3,1l0,0c2.3-0.3,8-0.6,9.1-0.6l0.8,1.4l0,0l0.8-0.5l0,0l0,0
				C208.5,39.9,206.9,37.4,206,35.9z"/>
			<path class="st0" d="M205.9,27.8L205.9,27.8l-0.9,0.3l0,0l0,0c1.1,3.4,2.6,5.5,5.2,7.5l0,0l0.7-0.8l0,0
				C208.4,33,207.1,31.2,205.9,27.8z"/>
			<path class="st0" d="M221.3,34.6h-7V41h1v-1.3h5.9v-5.1H221.3z M220.3,35.5v3.2h-4.9v-3.2H220.3z"/>
			<path class="st0" d="M213.6,28.7v1h10.3v9.8c0,1-0.2,1.3-1.3,1.3h-2.1l0.2,1h2.3c1.4,0,1.9-0.5,1.9-1.9V28.7H213.6z"/>
			<rect x="212.9" y="31.7" class="st0" width="10" height="0.9"/>
		</g>
		<path class="st0" d="M108.6,61c-1.4,0-2.6-0.5-3.6-1.5c-1.3-1.3-1.3-2.9-1.3-5.2V54c0-2.3,0-3.9,1.3-5.2c1-1,2.1-1.5,3.6-1.5
			c2.6,0,4.4,1.4,4.9,3.9h-2.2c-0.4-1.3-1.3-2.1-2.8-2.1c-0.8,0-1.5,0.3-2,0.9c-0.6,0.7-0.7,1.4-0.7,4.1c0,2.7,0.1,3.5,0.7,4.2
			c0.5,0.5,1.2,0.8,2,0.8c0.9,0,1.6-0.3,2.2-0.9c0.5-0.5,0.7-1.2,0.7-2.1v-0.8h-2.6v-1.7h4.7v1.8c0,2-0.4,3.1-1.3,4.1
			C111.3,60.5,110.1,61,108.6,61z"/>
		<path class="st0" d="M124.7,60.9l-2.7-5.6h-2.5v5.6h-2.1V47.4h5.2c2.5,0,4.3,1.6,4.3,4c0,1.6-0.9,2.9-2.4,3.4l-0.3,0.1l3.1,5.9
			L124.7,60.9L124.7,60.9z M119.5,53.6h2.9c1.4,0,2.3-0.9,2.3-2.2s-0.9-2.2-2.3-2.2h-2.9V53.6z"/>
		<polygon class="st0" points="130.6,60.9 130.6,47.4 139.3,47.4 139.3,49.3 132.8,49.3 132.8,53.2 138.3,53.2 138.3,55 132.8,55 
			132.8,59 139.3,59 139.3,60.9 		"/>
		<polygon class="st0" points="143,60.9 143,47.4 151.6,47.4 151.6,49.3 145.1,49.3 145.1,53.2 150.7,53.2 150.7,55 145.1,55 
			145.1,59 151.6,59 151.6,60.9 		"/>
		<polygon class="st0" points="163.5,60.9 157.5,51.6 157.5,60.9 155.3,60.9 155.3,47.4 157.3,47.4 163.3,56.8 163.3,47.4 
			165.5,47.4 165.5,60.9 		"/>
		<polygon class="st0" points="177.7,60.9 173.2,47.4 175.5,47.4 178.5,57.3 181.5,47.4 183.8,47.4 179.3,60.9 		"/>
		<path class="st0" d="M193.8,60.9l-0.8-2.5h-5.4l-0.8,2.5h-2.2l4.9-13.5h1.7l4.9,13.5H193.8z M188.1,56.7h4.3l-2.1-6.3L188.1,56.7z
			"/>
		<polygon class="st0" points="198.9,60.9 198.9,47.4 201,47.4 201,59 207.4,59 207.4,60.9 		"/>
		<path class="st0" d="M215,61c-2.8,0-4.9-1.9-4.9-4.6v-8.9h2.1v8.8c0,1.8,1.1,2.9,2.7,2.9c1.7,0,2.7-1.1,2.7-2.9v-8.8h2.1v8.9
			C219.9,59.1,217.8,61,215,61z"/>
		<polygon class="st0" points="223.9,60.9 223.9,47.4 232.6,47.4 232.6,49.3 226.1,49.3 226.1,53.2 231.6,53.2 231.6,55 226.1,55 
			226.1,59 232.6,59 232.6,60.9 		"/>
	</g>
	<g>
		<path class="st0" d="M92,34.7c0-2.1-0.8-3.3-2.6-4.2c-4.4-2.1-8.7-4.3-13-6.5c-2.5-1.2-5-2.5-8.2-4.1c0,4.4,0,8,0,12.4
			c-7.8-4-15-7.7-22.7-11.6V37c0.4-0.1,0.8,0.1,1.1,0.4c0.2,0.1,0.4,0.5,0.4,1c0,0.3-0.1,0.6-0.3,0.9l-0.1,0.1
			c-0.3,0.2-0.6,0.3-0.9,0.3c0,0-0.1,0-0.1,0v21c14.3,0,28.6,0,43,0c2.6,0,3.6-1.1,3.5-3.7C91.9,49.6,91.9,42.1,92,34.7z M48.9,45.4
			c-0.2,0.2-0.6,0.4-0.9,0.4c-0.3,0-0.7-0.1-0.9-0.4c-0.3-0.4-0.4-0.7-0.4-1c0-0.4,0.1-0.7,0.4-1c0.5-0.5,1.4-0.6,1.9-0.1
			c0.2,0.2,0.4,0.5,0.4,1C49.4,44.8,49.2,45.1,48.9,45.4z M51.5,36.8L51.3,37c-0.2,0.1-0.5,0.3-0.9,0.3c-0.3,0-0.6-0.1-0.9-0.3
			c-0.4-0.4-0.5-0.8-0.5-1c0-0.3,0.1-0.6,0.3-0.9l0.1-0.1c0.6-0.4,1.3-0.4,1.9,0c0.2,0.2,0.4,0.5,0.4,1
			C51.8,36.2,51.7,36.5,51.5,36.8z M52.7,40.7c0-0.3,0.1-0.6,0.3-0.9c0.6-0.6,1.5-0.6,2-0.1c0.2,0.1,0.4,0.5,0.4,1
			c0,0.3-0.1,0.6-0.3,0.9L55,41.8c-0.3,0.2-0.6,0.3-0.9,0.3c-0.3,0-0.6-0.1-0.9-0.3C52.9,41.4,52.7,41.1,52.7,40.7z M55.7,48.3
			c-0.3,0.3-0.6,0.4-1,0.4c-0.4,0-0.7-0.2-1-0.4c-0.3-0.2-0.4-0.6-0.4-1c0-0.4,0.2-0.8,0.5-1c0.1-0.2,0.5-0.3,0.9-0.3
			c0.4,0,0.8,0.1,1,0.4c0.2,0.2,0.4,0.5,0.4,1C56.1,47.7,55.9,48.1,55.7,48.3z M56.2,36.3c-0.2,0.2-0.6,0.4-0.9,0.4
			c-0.3,0-0.6-0.1-0.9-0.3c-0.3-0.3-0.5-0.7-0.5-1c0-0.4,0.1-0.7,0.4-1c0.6-0.5,1.4-0.5,1.9,0c0.2,0.2,0.4,0.6,0.4,1
			C56.7,35.7,56.5,36.1,56.2,36.3z M58,37.5c-0.3-0.3-0.4-0.6-0.4-1c0-0.3,0.1-0.6,0.3-0.9c0.6-0.6,1.5-0.6,2-0.1
			c0.2,0.1,0.4,0.5,0.4,1c0,0.4-0.1,0.7-0.4,1c-0.3,0.3-0.7,0.4-1,0.4C58.6,37.9,58.2,37.7,58,37.5z M61.7,44.1
			c-0.3,0.3-0.6,0.4-1,0.4c-0.3,0-0.7-0.1-0.9-0.4c-0.3-0.3-0.4-0.6-0.4-1c0-0.4,0.2-0.8,0.5-1c0.5-0.5,1.4-0.5,1.9,0.1
			c0.2,0.2,0.4,0.5,0.4,1C62.1,43.5,62,43.8,61.7,44.1z M65.3,49.6c-0.2,0.2-0.6,0.4-0.9,0.4c-0.3,0-0.6-0.1-0.9-0.3
			c-0.3-0.3-0.5-0.7-0.5-1c0-0.3,0.1-0.6,0.3-0.9c0.6-0.6,1.5-0.6,2-0.1c0.2,0.1,0.4,0.5,0.4,1C65.7,49,65.6,49.4,65.3,49.6z
			 M66.2,40.3c-0.3,0-0.6-0.1-0.9-0.3c-0.3-0.3-0.5-0.7-0.5-1c0-0.3,0.1-0.6,0.3-0.9c0.6-0.6,1.4-0.6,2-0.1c0.2,0.2,0.4,0.5,0.4,1
			c0,0.4-0.2,0.8-0.4,1C66.9,40.1,66.5,40.3,66.2,40.3z M69.6,47.7c-0.3,0.3-0.6,0.4-1,0.4c-0.4,0-0.7-0.1-1-0.4
			c-0.3-0.3-0.4-0.6-0.4-1c0-0.3,0.1-0.6,0.3-0.9c0.6-0.6,1.5-0.6,2-0.1c0.2,0.1,0.4,0.5,0.4,1C70,47.1,69.8,47.5,69.6,47.7z
			 M72,44.7c-0.3,0.3-0.6,0.4-1,0.4c-0.3,0-0.7-0.1-0.9-0.4c-0.3-0.3-0.4-0.6-0.4-1c0-0.4,0.2-0.8,0.5-1c0.4-0.4,1.3-0.5,1.8,0
			c0.2,0.2,0.4,0.5,0.4,1C72.4,44.1,72.2,44.4,72,44.7z M75.1,42.2L75,42.4c-0.3,0.2-0.6,0.3-0.9,0.3c-0.3,0-0.6-0.1-0.9-0.3
			c-0.3-0.3-0.5-0.7-0.5-1c0-0.3,0.1-0.6,0.3-0.9c0.5-0.5,1.1-0.5,1.6-0.3c-0.1-0.2-0.2-0.4-0.2-0.6c0-0.4,0.2-0.8,0.5-1
			c0.4-0.4,1.3-0.5,1.8,0c0.3,0.4,0.4,0.7,0.4,1c0,0.4-0.1,0.7-0.4,0.9c-0.3,0.3-0.6,0.4-1,0.4c-0.2,0-0.4-0.1-0.6-0.2
			c0.1,0.2,0.2,0.4,0.2,0.6C75.4,41.7,75.3,42,75.1,42.2z M78.1,47.1c-0.3,0.3-0.6,0.4-1,0.4c-0.3,0-0.6-0.1-0.9-0.3
			c-0.3-0.3-0.5-0.7-0.5-1c0-0.3,0.1-0.6,0.3-0.9l0.1-0.1c0.6-0.5,1.3-0.4,1.9,0c0.2,0.2,0.4,0.5,0.4,1
			C78.4,46.5,78.3,46.9,78.1,47.1z"/>
		<g>
			<path class="st0" d="M41.5,47.1c-0.2,0.3-0.3,0.6-0.3,0.9c0,0.4,0.1,0.7,0.4,1c0.2,0.2,0.6,0.4,0.9,0.4c0.3,0,0.7-0.2,1-0.4
				c0.2-0.2,0.4-0.6,0.4-0.9c0-0.5-0.3-0.8-0.4-1C43,46.5,42.2,46.5,41.5,47.1z"/>
			<path class="st0" d="M35.9,51.8c0.4,0,0.8-0.2,0.9-0.4c0.3-0.2,0.4-0.6,0.4-1c0-0.5-0.2-0.8-0.4-1c-0.5-0.5-1.4-0.5-2,0.1
				c-0.2,0.3-0.3,0.6-0.3,0.9c0,0.4,0.1,0.7,0.4,1C35.2,51.6,35.6,51.8,35.9,51.8z"/>
			<path class="st0" d="M28.7,53.6c0.3,0,0.7-0.2,1-0.4c0.2-0.2,0.4-0.6,0.4-0.9c0-0.3-0.1-0.6-0.4-1c-0.6-0.5-1.4-0.5-1.8,0
				c-0.3,0.2-0.5,0.6-0.5,1c0,0.4,0.1,0.7,0.5,1C28.1,53.5,28.4,53.6,28.7,53.6z"/>
			<path class="st0" d="M20.8,54.2c0.4,0,0.7-0.1,0.9-0.4c0.3-0.2,0.4-0.6,0.4-1c0-0.3-0.1-0.6-0.4-1c-0.6-0.5-1.4-0.5-2,0.1
				c-0.2,0.3-0.3,0.6-0.3,0.9c0,0.3,0.1,0.7,0.4,1C20.1,54.1,20.4,54.2,20.8,54.2z"/>
			<path class="st0" d="M39.6,42.7c0.4,0,0.6-0.2,0.9-0.3l0.2-0.2c0.2-0.3,0.3-0.6,0.3-0.9c0-0.4-0.1-0.7-0.4-1
				c-0.5-0.5-1.3-0.5-2,0.1c-0.2,0.3-0.3,0.6-0.3,0.9c0,0.3,0.2,0.7,0.5,1C39,42.6,39.3,42.7,39.6,42.7z"/>
			<path class="st0" d="M33.5,44.5c0.3,0,0.6-0.1,0.9-0.4c0.3-0.2,0.4-0.6,0.4-1c0-0.4-0.1-0.7-0.5-1.1c-0.6-0.4-1.3-0.4-1.9,0.1
				c-0.2,0.3-0.3,0.6-0.3,0.9c0,0.4,0.1,0.7,0.4,1C32.8,44.4,33.2,44.5,33.5,44.5z"/>
			<path class="st0" d="M26.4,44c-0.2,0.3-0.3,0.6-0.3,0.9c0,0.3,0.1,0.6,0.4,1c0.2,0.2,0.6,0.4,0.9,0.4c0.4,0,0.7-0.1,0.9-0.4
				c0.3-0.2,0.4-0.6,0.4-1c0-0.4-0.1-0.7-0.4-1C27.8,43.5,27,43.5,26.4,44z"/>
			<path class="st0" d="M19.8,44c-0.2,0.3-0.3,0.6-0.3,0.9c0,0.3,0.2,0.7,0.4,1c0.2,0.2,0.6,0.4,0.9,0.4c0.3,0,0.7-0.2,1-0.4
				c0.2-0.2,0.4-0.6,0.4-0.9c0-0.5-0.2-0.8-0.4-1C21.2,43.5,20.4,43.5,19.8,44z"/>
			<path class="st0" d="M38.8,35.3c0,0.3,0.1,0.7,0.4,1c0.3,0.3,0.6,0.4,1,0.4c0.3,0,0.7-0.1,1-0.4c0.3-0.3,0.4-0.6,0.4-1
				c0-0.4-0.1-0.7-0.4-1c-0.5-0.5-1.4-0.5-2,0.1C38.9,34.6,38.8,35,38.8,35.3z"/>
			<path class="st0" d="M34.4,38.1c0.2,0.2,0.6,0.4,0.9,0.4c0.3,0,0.6-0.1,0.9-0.3l0.1-0.1c0.2-0.3,0.3-0.6,0.3-0.9
				c0-0.5-0.3-0.8-0.4-1c-0.5-0.5-1.3-0.5-2,0.1c-0.2,0.3-0.3,0.6-0.3,0.9C33.9,37.4,34.1,37.8,34.4,38.1z"/>
			<path class="st0" d="M29.3,39.7c0.3,0,0.6-0.1,0.9-0.3l0.1-0.1c0.2-0.3,0.3-0.6,0.3-0.9c0-0.5-0.2-0.8-0.4-1
				c-0.6-0.5-1.4-0.5-2,0.1c-0.2,0.3-0.3,0.6-0.3,0.9c0,0.3,0.2,0.7,0.5,1C28.7,39.6,29,39.7,29.3,39.7z"/>
			<path class="st0" d="M23.6,39.9c0.2-0.2,0.4-0.6,0.4-0.9c0-0.4-0.1-0.7-0.4-1c-0.6-0.5-1.3-0.5-2,0.1c-0.2,0.3-0.3,0.6-0.3,0.9
				c0,0.4,0.1,0.7,0.5,1c0.3,0.2,0.6,0.3,0.9,0.3C23,40.3,23.3,40.1,23.6,39.9z"/>
			<path class="st0" d="M19,33.6c0.4,0,0.6-0.2,0.9-0.3l0.1-0.1c0.2-0.3,0.4-0.6,0.4-1c0-0.5-0.3-0.8-0.4-1c-0.5-0.5-1.4-0.5-2,0.1
				c-0.2,0.3-0.3,0.6-0.3,0.9c0,0.3,0.2,0.7,0.4,1C18.3,33.5,18.6,33.6,19,33.6z"/>
		</g>
		<g class="st1">
			<path class="st2" d="M54.3,34.3c-0.3,0.3-0.4,0.6-0.4,1c0,0.3,0.2,0.7,0.5,1c0.3,0.2,0.6,0.3,0.9,0.3c0.4,0,0.7-0.1,0.9-0.4
				c0.3-0.2,0.4-0.6,0.4-1c0-0.4-0.2-0.8-0.4-1C55.7,33.8,54.9,33.8,54.3,34.3z"/>
			<path class="st2" d="M63.5,49.6c0.3,0.2,0.6,0.3,0.9,0.3c0.3,0,0.7-0.2,0.9-0.4c0.3-0.2,0.4-0.6,0.4-1c0-0.5-0.3-0.8-0.4-1
				c-0.5-0.5-1.3-0.5-2,0.1C63.1,48,63,48.3,63,48.6C63,48.9,63.1,49.3,63.5,49.6z"/>
			<path class="st2" d="M71,45.1c0.4,0,0.7-0.1,1-0.4c0.2-0.3,0.4-0.6,0.4-0.9c0-0.5-0.2-0.8-0.4-1c-0.5-0.5-1.4-0.5-1.8,0
				c-0.3,0.2-0.5,0.6-0.5,1c0,0.3,0.2,0.7,0.4,1C70.3,45,70.7,45.1,71,45.1z"/>
			<path class="st2" d="M76.8,40.5c0.2-0.3,0.4-0.6,0.4-0.9c0-0.3-0.1-0.6-0.4-1c-0.6-0.5-1.5-0.5-1.8,0c-0.3,0.2-0.5,0.6-0.5,1
				c0,0.2,0.1,0.4,0.2,0.6c-0.5-0.2-1.1-0.2-1.6,0.3c-0.2,0.3-0.3,0.6-0.3,0.9c0,0.4,0.1,0.7,0.5,1c0.3,0.2,0.6,0.3,0.9,0.3
				c0.3,0,0.6-0.1,0.9-0.3l0.1-0.1c0.2-0.3,0.3-0.6,0.3-0.9c0-0.2-0.1-0.4-0.2-0.6c0.2,0.1,0.4,0.2,0.6,0.2
				C76.2,40.9,76.6,40.7,76.8,40.5z"/>
			<path class="st2" d="M67.1,37.9c-0.6-0.5-1.3-0.5-2,0.1c-0.2,0.3-0.3,0.6-0.3,0.9c0,0.3,0.2,0.7,0.5,1c0.3,0.2,0.6,0.3,0.9,0.3
				c0.3,0,0.7-0.2,0.9-0.4c0.3-0.2,0.4-0.6,0.4-1C67.5,38.4,67.3,38.1,67.1,37.9z"/>
			<path class="st2" d="M61.7,42.2c-0.5-0.5-1.4-0.5-1.9-0.1c-0.3,0.2-0.5,0.6-0.5,1c0,0.3,0.2,0.7,0.4,1c0.3,0.2,0.6,0.4,0.9,0.4
				c0.4,0,0.7-0.1,1-0.4c0.2-0.3,0.4-0.6,0.4-0.9C62.1,42.7,61.9,42.3,61.7,42.2z"/>
			<path class="st2" d="M56.1,47.4c0-0.5-0.2-0.8-0.4-1c-0.3-0.3-0.6-0.4-1-0.4c-0.4,0-0.7,0.2-0.9,0.3c-0.3,0.2-0.5,0.6-0.5,1
				c0,0.4,0.2,0.7,0.4,1c0.2,0.3,0.6,0.4,1,0.4c0.4,0,0.7-0.1,1-0.4C55.9,48.1,56.1,47.7,56.1,47.4z"/>
			<path class="st2" d="M58.9,37.9c0.3,0,0.6-0.1,1-0.4c0.2-0.3,0.4-0.6,0.4-1c0-0.5-0.3-0.8-0.4-1c-0.5-0.5-1.3-0.5-2,0.1
				c-0.2,0.3-0.3,0.6-0.3,0.9c0,0.4,0.1,0.7,0.4,1C58.2,37.7,58.6,37.9,58.9,37.9z"/>
			<path class="st2" d="M53.2,41.8c0.3,0.2,0.6,0.3,0.9,0.3c0.3,0,0.6-0.1,0.9-0.3l0.1-0.1c0.2-0.3,0.3-0.6,0.3-0.9
				c0-0.5-0.3-0.8-0.4-1c-0.5-0.5-1.3-0.5-2,0.1c-0.2,0.3-0.3,0.6-0.3,0.9C52.7,41.1,52.9,41.4,53.2,41.8z"/>
			<path class="st2" d="M49,43.3c-0.6-0.5-1.4-0.5-1.9,0.1c-0.3,0.3-0.4,0.6-0.4,1c0,0.3,0.1,0.6,0.4,1c0.2,0.2,0.6,0.4,0.9,0.4
				c0.4,0,0.7-0.1,0.9-0.4c0.3-0.2,0.4-0.6,0.4-1C49.4,43.9,49.2,43.6,49,43.3z"/>
			<path class="st2" d="M50.4,37.3c0.4,0,0.6-0.2,0.9-0.3l0.2-0.2c0.2-0.3,0.3-0.6,0.3-0.9c0-0.5-0.2-0.8-0.4-1
				c-0.5-0.5-1.3-0.5-1.9,0L49.4,35c-0.2,0.3-0.3,0.6-0.3,0.9c0,0.2,0.1,0.6,0.5,1C49.9,37.1,50.1,37.3,50.4,37.3z"/>
			<path class="st2" d="M70,46.8c0-0.5-0.3-0.8-0.4-1c-0.5-0.5-1.3-0.5-2,0.1c-0.2,0.3-0.3,0.6-0.3,0.9c0,0.4,0.1,0.7,0.4,1
				c0.3,0.3,0.6,0.4,1,0.4c0.4,0,0.7-0.1,1-0.4C69.8,47.5,70,47.1,70,46.8z"/>
			<path class="st2" d="M76.1,45.1L76,45.3c-0.2,0.3-0.3,0.6-0.3,0.9c0,0.4,0.1,0.7,0.5,1c0.3,0.2,0.6,0.3,0.9,0.3
				c0.3,0,0.7-0.2,1-0.4c0.2-0.2,0.4-0.6,0.4-0.9c0-0.5-0.2-0.8-0.4-1C77.5,44.7,76.7,44.7,76.1,45.1z"/>
		</g>
		<g>
			<path class="st0" d="M44.6,37.4c-0.2,0.3-0.3,0.6-0.3,0.9c0,0.3,0.2,0.7,0.5,1c0.2,0.2,0.5,0.3,0.7,0.3V37
				C45.1,37,44.8,37.1,44.6,37.4z"/>
			<path class="st2" d="M46.6,37.3c-0.3-0.3-0.7-0.4-1.1-0.3v2.7c0.1,0,0.1,0,0.2,0c0.3,0,0.6-0.1,0.9-0.3l0.1-0.1
				c0.2-0.3,0.3-0.6,0.3-0.9C47,37.8,46.7,37.5,46.6,37.3z"/>
		</g>
	</g>
</g>
</svg>
