<?xml version="1.0" encoding="utf-8"?>
<!-- Generator: Adobe Illustrator 22.1.0, SVG Export Plug-In . SVG Version: 6.00 Build 0)  -->
<svg version="1.1" id="圖層_1" xmlns="http://www.w3.org/2000/svg" xmlns:xlink="http://www.w3.org/1999/xlink" x="0px" y="0px"
	 viewBox="0 0 256 256" style="enable-background:new 0 0 256 256;" xml:space="preserve">
<style type="text/css">
	.st0{fill:#37A0FF;}
	.st1{fill:#BEFAC8;}
	.st2{fill:#FFFFFF;}
	.st3{fill:#CECDC8;}
</style>
<g>
	<g>
		<g>
			<g>
				<path class="st0" d="M148.7,159h-69V81.9c0-4,3.2-7.2,7.2-7.2h71.4c4,0,7.2,3.2,7.2,7.2v41.3l-2.4-1.2c-2.6-1.4-5.7-2-9-2
					c-8.8,0-15.5,4.9-17.9,13.2c-2.2,7.6-0.3,17.9,7.6,22.9L148.7,159z M82.9,155.7h55.6c-5.6-5.8-7.8-15-5.3-23.6
					c2.8-9.7,10.7-15.6,21-15.6c2.9,0,5.6,0.5,8.1,1.4V81.9c0-2.2-1.8-4-4-4H86.9c-2.2,0-4,1.8-4,4V155.7z"/>
			</g>
		</g>
	</g>
	<g>
		<g>
			<g>
				<path class="st0" d="M135.6,137.6h-24.3c-2,0-3.6-1.6-3.6-3.6V94c0-2,1.6-3.6,3.6-3.6h17.5l0.5,0.8c0.2,0.4,0.5,0.8,0.7,1.2
					l0.5,0.7l-0.4,0.8c-0.5,1.1-0.8,2.1-0.9,3c-0.1,0.6-0.2,1.2-0.1,1.8c0,0.6,0,1.2,0.1,1.7l0,0c0.9,6,6.1,10.5,12.1,10.5
					c1.7,0,3.4-0.4,5.1-1.1l2.3-1v11.8l-1.1,0.4c-6.4,2.2-10.9,7.9-11.9,15.3L135.6,137.6z M111.3,93.7c-0.2,0-0.4,0.2-0.4,0.4v40
					c0,0.2,0.2,0.4,0.4,0.4h21.5c1.5-7.6,6.1-13.5,12.8-16.1v-4.6c-1.4,0.4-2.7,0.6-4.1,0.6c-7.7,0-14.3-5.7-15.4-13.3
					c-0.1-0.8-0.2-1.5-0.2-2.3c0-0.7,0.1-1.5,0.2-2.2c0.1-0.9,0.3-1.8,0.7-2.8H111.3z"/>
			</g>
		</g>
	</g>
	<g>
		<g>
			<g>
				<path class="st0" d="M158.4,181.4H86.9c-4,0-7.2-3.2-7.2-7.2v-24h58.6l0.5,0.7c2.4,3.6,6.9,7.9,15.4,7.9c3.3,0,6.3-0.7,9-2
					l2.4-1.2v18.6C165.6,178.1,162.3,181.4,158.4,181.4z M82.9,153.4v20.8c0,2.2,1.8,4,4,4h71.4c2.2,0,4-1.8,4-4v-13.5
					c-2.5,0.9-5.2,1.4-8.1,1.4c-7.4,0-13.7-3.1-17.6-8.6H82.9z"/>
			</g>
		</g>
	</g>
	<g>
		<g>
			<g>
				<path class="st0" d="M120.5,167.7L120.5,167.7c0,3.1-2.5,5.6-5.6,5.6H95.3c-3.1,0-5.6-2.5-5.6-5.6l0,0c0-3.1,2.5-5.6,5.6-5.6
					h19.6C118,162.1,120.5,164.6,120.5,167.7z"/>
			</g>
		</g>
	</g>
	<g>
		<g>
			<g>
				<path class="st0" d="M119.1,87.4H99.5c-0.8,0-1.4,0.6-1.4,1.4v8.4c0,0.8,0.6,1.4,1.4,1.4h19.6c0.8,0,1.4-0.6,1.4-1.4v-8.4
					C120.5,88.1,119.9,87.4,119.1,87.4z"/>
			</g>
		</g>
	</g>
	<g>
		<g>
			<g>
				<path class="st0" d="M119.1,140.6H99.5c-0.8,0-1.4-0.6-1.4-1.4v-8.4c0-0.8,0.6-1.4,1.4-1.4h19.6c0.8,0,1.4,0.6,1.4,1.4v8.4
					C120.5,140,119.9,140.6,119.1,140.6z"/>
			</g>
		</g>
	</g>
	<g>
		<g>
			<g>
				<path class="st0" d="M119.7,112.2l-9.8-4.9c-0.4-0.2-0.9-0.2-1.3,0l-9.8,4.9c-0.5,0.2-0.8,0.7-0.8,1.3v1.1c0,0.5,0.3,1,0.8,1.3
					l9.8,4.9c0.4,0.2,0.9,0.2,1.3,0l9.8-4.9c0.5-0.2,0.8-0.7,0.8-1.3v-1.1C120.5,113,120.2,112.5,119.7,112.2z"/>
			</g>
		</g>
	</g>
	<g>
		<g>
			<g>
				<circle class="st0" cx="150" cy="167.7" r="5.6"/>
			</g>
		</g>
	</g>
	<g>
		<g>
			<g>
				<circle class="st0" cx="134.5" cy="167.7" r="5.6"/>
			</g>
		</g>
	</g>
	<g>
		<g>
			<g>
				<path class="st0" d="M156.9,96.5c-0.4-2.6-1.4-5-3-7.1c-0.9-1.2-1.9-2.3-3.2-3.2c-2.1-1.6-4.5-2.6-7.1-2.9
					c-0.7-0.1-1.5-0.2-2.2-0.2c-0.7,0-1.5,0-2.2,0.2c-2.6,0.4-5,1.4-7.1,3c-1.2,0.9-2.3,1.9-3.2,3.2c-1.6,2.1-2.6,4.5-2.9,7.1
					c-0.1,0.7-0.2,1.5-0.2,2.2c0,0.7,0.1,1.5,0.2,2.2c1.1,7.7,7.7,13.3,15.4,13.3c7.7,0,14.3-5.7,15.4-13.3c0.1-0.7,0.2-1.5,0.2-2.2
					C157,97.9,157,97.2,156.9,96.5z M133.7,100.2H128c-0.1-0.6-0.2-1.3-0.2-1.9c0-0.7,0-1.3,0.2-1.9h5.7V100.2z M134.6,94.1l-4-4
					c0.8-1.1,1.7-2,2.8-2.8l4,4L134.6,94.1z M143.4,106h-3.9v-9.7h3.9V106z M143.4,90.5h-3.9v-5.7c0.6-0.1,1.3-0.1,1.9-0.1
					c0.7,0,1.3,0,1.9,0.2V90.5z M145.6,91.3l4-4c1.1,0.8,2,1.7,2.8,2.8l-4,4L145.6,91.3z M154.9,100.2h-5.7v-3.9h5.7
					c0.1,0.6,0.1,1.3,0.1,1.9C155,98.9,155,99.5,154.9,100.2z"/>
			</g>
		</g>
	</g>
	<g>
		<path class="st3" d="M188.7,165.4l-14.5-14.5c2.1-3.5,3.4-7.6,3.4-12c0-12.8-10.5-23.3-23.3-23.3c-12.8,0-23.3,10.5-23.3,23.3
			c0,12.8,10.5,23.3,23.3,23.3c4.5,0,8.6-1.3,12.2-3.5l14.5,14.5c1,1,2.4,1.6,3.9,1.6c1.5,0,2.8-0.6,3.9-1.6c1-1,1.6-2.4,1.6-3.9
			C190.3,167.8,189.7,166.4,188.7,165.4z M135.4,138.9c0-10.5,8.5-19,19-19c10.5,0,19,8.5,19,19c0,10.5-8.5,19-19,19
			C143.9,157.9,135.4,149.3,135.4,138.9z"/>
		<path class="st3" d="M159.7,132.3l-7.5,7.5l-2.4-2.4c-1.1-1.1-3-1.1-4.1,0c-1.1,1.1-1.1,3,0,4.1l4.5,4.5c0.6,0.6,1.3,0.8,2,0.8
			c0.7,0,1.5-0.3,2-0.8l9.6-9.6c1.1-1.1,1.1-3,0-4.1C162.7,131.2,160.9,131.2,159.7,132.3z"/>
	</g>
</g>
</svg>
