<?xml version="1.0" encoding="utf-8"?>
<!-- Generator: Adobe Illustrator 22.1.0, SVG Export Plug-In . SVG Version: 6.00 Build 0)  -->
<svg version="1.1" id="圖層_1" xmlns="http://www.w3.org/2000/svg" xmlns:xlink="http://www.w3.org/1999/xlink" x="0px" y="0px"
	 viewBox="0 0 256 256" style="enable-background:new 0 0 256 256;" xml:space="preserve">
<style type="text/css">
	.st0{fill:#37A0FF;}
	.st1{fill:#BEFAC8;}
	.st2{fill:#FFFFFF;}
	.st3{fill:#CECDC8;}
</style>
<g>
	<g>
		<path class="st0" d="M102.9,150.8c-4.2,0-7.5,3.4-7.5,7.5c0,4.2,3.4,7.5,7.5,7.5c4.2,0,7.5-3.4,7.5-7.5
			C110.5,154.1,107.1,150.8,102.9,150.8z M102.9,160.8c-1.4,0-2.5-1.1-2.5-2.5c0-1.4,1.1-2.5,2.5-2.5c1.4,0,2.5,1.1,2.5,2.5
			C105.4,159.7,104.3,160.8,102.9,160.8z"/>
		<path class="st0" d="M152.8,148.4H151l-1.2-7.6h1.4c1.5,0,2.7-1.2,2.7-2.7s-1.2-2.7-2.7-2.7h-6.5c-1.5,0-2.7,1.2-2.7,2.7
			s1.2,2.7,2.7,2.7h1.4l-1.4,7.6H143c-1.5,0-2.7,1.2-2.7,2.7c0,1.5,1.2,2.7,2.7,2.7h1.6v20c0,1.8-1.5,3.3-3.3,3.3
			c-1.8,0-3.3-1.5-3.3-3.3v-3.3c0-5.4-4.4-9.8-9.8-9.8h-2.9v-6.1c0-1.4-1.1-2.5-2.5-2.5h-4.5v-15.6c1.7-0.3,3.1-1.7,3.1-3.5v-2.5
			c0-3.4-2.7-6.1-6.1-6.1H109v-3.9c0-3.4-2.7-6.1-6.1-6.1c-3.4,0-6.1,2.7-6.1,6.1v3.9h-6.5c-3.4,0-6.1,2.7-6.1,6.1v2.5
			c0,1.8,1.3,3.2,3.1,3.5v44.1c-1.8,1.1-3.1,2.9-3.1,5.2v2.5c0,2,1.6,3.6,3.6,3.6H118c2,0,3.6-1.6,3.6-3.6v-2.5
			c0-2.2-1.3-4.1-3.1-5.2v-3.4h4.5c1.4,0,2.5-1.1,2.5-2.5v-7.5h2.9c1.8,0,3.3,1.5,3.3,3.3v3.3c0,5.4,4.4,9.8,9.8,9.8
			c5.4,0,9.8-4.4,9.8-9.8v-20h1.6c1.5,0,2.7-1.2,2.7-2.7C155.5,149.6,154.3,148.4,152.8,148.4z M102.9,170.9
			c-6.9,0-12.6-5.6-12.6-12.6s5.6-12.6,12.6-12.6s12.6,5.6,12.6,12.6S109.9,170.9,102.9,170.9z M99,120.6c0-2.2,1.8-3.9,3.9-3.9
			c2.2,0,3.9,1.8,3.9,3.9v3.9H99V120.6z M86.4,133.2v-2.5c0-2.2,1.8-3.9,3.9-3.9h6.5H109h6.5c2.2,0,3.9,1.8,3.9,3.9v2.5
			c0,0.8-0.6,1.4-1.4,1.4H87.9C87,134.6,86.4,134,86.4,133.2z M119.4,188.5c0,0.8-0.6,1.4-1.4,1.4H87.9c-0.8,0-1.4-0.6-1.4-1.4v-2.5
			c0-2.2,1.8-3.9,3.9-3.9h25.1c2.2,0,3.9,1.8,3.9,3.9V188.5z M144.6,138.6c-0.3,0-0.5-0.2-0.5-0.5s0.2-0.5,0.5-0.5h6.5
			c0.3,0,0.5,0.2,0.5,0.5s-0.2,0.5-0.5,0.5H144.6z M152.8,151.6H143c-0.3,0-0.5-0.2-0.5-0.5s0.2-0.5,0.5-0.5h9.8
			c0.3,0,0.5,0.2,0.5,0.5S153.1,151.6,152.8,151.6z"/>
	</g>
	<path class="st3" d="M177.2,99.9c-4.1,0-7.6,2.8-8.6,6.7h-4.7c-4.9,0-8.9,4-8.9,8.9v13.4c0,1.2,1.1,2.2,2.3,2.2
		c1.2,0,2.2-1,2.2-2.2v-13.4c0-2.4,2-4.4,4.4-4.4h4.7c1,3.9,4.5,6.7,8.6,6.7c4.9,0,8.9-4,8.9-8.9C186,103.9,182.1,99.9,177.2,99.9z
		 M177.2,113.2c-2.4,0-4.4-2-4.4-4.4c0-2.4,2-4.4,4.4-4.4c2.4,0,4.4,2,4.4,4.4C181.6,111.2,179.6,113.2,177.2,113.2z"/>
	<path class="st3" d="M141.2,79.9h-4.5c-0.5-4.5-4.2-8-8.8-8c-4.9,0-8.9,4-8.9,8.9c0,4.9,4,8.9,8.9,8.9c3.5,0,6.7-2.1,8.1-5.3h5.2
		c2.4,0,4.4,2,4.4,4.4v40c0,1.2,1.1,2.2,2.3,2.2c1.2,0,2.2-1,2.2-2.2v-40C150.1,83.9,146.1,79.9,141.2,79.9z M127.9,85.2
		c-2.4,0-4.4-2-4.4-4.4c0-2.4,2-4.4,4.4-4.4c2.4,0,4.4,2,4.4,4.4C132.3,83.3,130.4,85.2,127.9,85.2z"/>
	<path class="st3" d="M131.9,99.9h-4.7c-1-3.9-4.5-6.7-8.6-6.7c-4.9,0-8.9,4-8.9,8.9c0,4.9,4,8.9,8.9,8.9c4.1,0,7.6-2.8,8.6-6.6h4.7
		c2.4,0,4.4,2,4.4,4.4v20c0,1.2,1.1,2.2,2.3,2.2s2.2-1,2.2-2.2v-20C140.8,103.9,136.8,99.9,131.9,99.9z M118.6,97.7
		c2.4,0,4.4,2,4.4,4.4c0,2.4-2,4.4-4.4,4.4c-2.4,0-4.4-2-4.4-4.4C114.2,99.7,116.2,97.7,118.6,97.7z"/>
	<g>
		<g>
			<g>
				<path class="st0" d="M123.3,102.1c0,2.6-2.1,4.7-4.7,4.7c-2.6,0-4.7-2.1-4.7-4.7c0-2.6,2.1-4.7,4.7-4.7
					C121.2,97.4,123.3,99.5,123.3,102.1z"/>
			</g>
		</g>
	</g>
	<g>
		<g>
			<g>
				<path class="st0" d="M181.9,90.1c0,2.6-2.1,4.7-4.7,4.7c-2.6,0-4.7-2.1-4.7-4.7c0-2.6,2.1-4.7,4.7-4.7
					C179.8,85.4,181.9,87.5,181.9,90.1z"/>
			</g>
		</g>
	</g>
	<path class="st3" d="M177.2,81.3c-4.1,0-7.6,2.8-8.6,6.7H165c-1.6,0-2.9-1.3-2.9-2.9V66.1c0-1.2-1.1-2.2-2.3-2.2
		c-1.2,0-2.2,1-2.2,2.2V85c0,4.1,3.3,7.4,7.4,7.4h3.6c1,3.9,4.5,6.7,8.6,6.7c4.9,0,8.9-4,8.9-8.9C186,85.2,182.1,81.3,177.2,81.3z
		 M177.2,94.6c-2.4,0-4.4-2-4.4-4.4c0-2.4,2-4.4,4.4-4.4c2.4,0,4.4,2,4.4,4.4C181.6,92.6,179.6,94.6,177.2,94.6z"/>
</g>
</svg>
