<?xml version="1.0" encoding="utf-8"?>
<!-- Generator: Adobe Illustrator 22.1.0, SVG Export Plug-In . SVG Version: 6.00 Build 0)  -->
<svg version="1.1" id="圖層_1" xmlns="http://www.w3.org/2000/svg" xmlns:xlink="http://www.w3.org/1999/xlink" x="0px" y="0px"
	 viewBox="0 0 256 256" style="enable-background:new 0 0 256 256;" xml:space="preserve">
<style type="text/css">
	.st0{fill:#37A0FF;}
	.st1{fill:#BEFAC8;}
	.st2{fill:#FFFFFF;}
	.st3{fill:#CECDC8;}
</style>
<g>
	<g>
		<g>
			<g>
				<g>
					<g>
						<path class="st0" d="M179.5,159.9c-1-1-2.4-1.6-4.2-1.9c-0.2-1.3-0.5-2.5-0.9-3.7v-31.1c0-0.9-0.7-1.5-1.6-1.5
							c-0.9,0-1.6,0.7-1.6,1.5v24.2c-2.3-3.8-5.4-7-8.7-9.6l0.4-1.6c0.2-0.8-0.3-1.7-1.1-1.9c-0.8-0.2-1.7,0.3-1.9,1.1l-0.1,0.5
							c-2.3-1.5-4.6-2.7-6.8-3.6v-10.5c1.7-0.9,5.7-3.6,5.5-10.1c0-1-0.1-4.2-2.4-5.1c-1.1-0.4-2.1-0.1-3.1,0.3v-1.6l3.9-2.4
							c0.7-0.4,1-1.4,0.5-2.1c-0.4-0.7-1.4-1-2.1-0.5l-2.3,1.4v-3.7c0-6.1-5.7-10.6-10.7-10.6h-23.1c-6.1,0-10.7,4.6-10.7,10.6v3.7
							l-2.3-1.4c-0.7-0.4-1.7-0.2-2.1,0.5c-0.4,0.7-0.2,1.7,0.5,2.1l3.9,2.4v1.5c-0.9-0.4-1.8-0.7-2.8-0.3c-2.3,0.9-2.4,4.1-2.4,5.2
							c-0.2,6.5,3.6,9.3,5.3,10.1v10.6c-2.3,1-4.6,2.2-6.6,3.5l-0.1-0.5c-0.2-0.8-1.1-1.3-1.9-1.1c-0.8,0.2-1.3,1.1-1.1,1.9l0.4,1.6
							c-6.1,4.8-10.4,11.1-12.1,17.9v-5.6c0-0.9-0.7-1.6-1.6-1.6h-0.8v-33.8c0-1.3,0.2-5.3,1.7-6.9c0.4-0.4,0.9-0.6,1.4-0.6
							c0.9,0,1.6-0.7,1.6-1.6c0-0.9-0.7-1.6-1.6-1.6c-1.4,0-2.7,0.5-3.7,1.6c-2.7,2.8-2.6,8.5-2.6,9.1v17.9h-2.2v-1.5h-2.5v6h2.5
							v-1.5h2.2v12.7h-0.8c-0.9,0-1.6,0.7-1.6,1.6v8.2c-1.1,0.3-2.1,0.9-2.8,1.6c-1.8,1.9-1.8,4.5-1.8,6.8l0,10.8
							c0,4.7,3.8,8.5,8.5,8.5c4.7,0,8.5-3.8,8.5-8.5v-10.8c0-2.3,0-4.9-1.8-6.8c-0.1-0.1-0.2-0.1-0.3-0.2c0.8-7,4.7-13.6,10.6-18.6
							l3.2,12.1v30.1c0,0.9,0.7,1.5,1.5,1.5c0.9,0,1.6-0.7,1.6-1.5v-28.8h2.2v2.6c0,6,4.9,10.9,10.9,10.9h22.9
							c6,0,10.9-4.9,10.9-10.9v-2.6h2.4v28.8c0,0.9,0.7,1.6,1.5,1.6c0.9,0,1.6-0.7,1.6-1.6v-30.1l3.2-12.1c4.2,3.5,7.8,8.1,9.5,13.7
							v3.1c-2.3,0.2-3.9,0.8-5.1,2c-1.9,1.9-1.8,4.5-1.8,6.8v10.8c0,4.7,3.8,8.5,8.5,8.5c4.7,0,8.5-3.8,8.5-8.5l0-10.8
							C181.3,164.4,181.4,161.7,179.5,159.9L179.5,159.9z M82.4,151.6h1.6v5.1h-1.6V151.6z M83.1,182.8c-3,0-5.4-2.4-5.4-5.4v-10.8
							c0-1.9,0-3.6,0.9-4.6c0.8-0.8,2.3-1.2,4.4-1.2c2.2,0,3.7,0.4,4.4,1.2c0.6,0.6,0.8,1.6,0.9,2.8h-3.6c-0.9,0-1.6,0.7-1.6,1.5
							c0,0.9,0.7,1.6,1.6,1.6h3.6v2.8h-3.6c-0.9,0-1.6,0.7-1.6,1.6s0.7,1.6,1.6,1.6h3.6v2.6h-3.6c-0.9,0-1.6,0.7-1.6,1.6
							c0,0.9,0.7,1.5,1.6,1.5H88C87.2,181.5,85.3,182.8,83.1,182.8L83.1,182.8z M106.3,111.6c0.1-1.8,0.4-2.3,0.4-2.3
							c0.3,0,1.2,0.6,1.7,1.2c0,0,0,0,0.1,0v7.4C107.4,116.8,106.2,114.8,106.3,111.6L106.3,111.6z M106,151.4l-3.3-12.4
							c1.8-1.3,3.7-2.4,5.8-3.3v15.7H106z M155,109.3c0,0,0.4,0.4,0.5,2.3c0.1,3.3-1.2,5.2-2.4,6.3v-7.4
							C153.7,109.9,154.7,109.3,155,109.3L155,109.3z M150,157.1c0,4.3-3.5,7.8-7.8,7.8h-22.9c-4.3,0-7.8-3.5-7.8-7.8V97.8
							c0-4.3,3.3-7.5,7.6-7.5h23.1c3.1,0,7.6,2.9,7.6,7.5V157.1z M155.8,151.4h-2.7v-15.8c2,0.9,4,2.1,6,3.4L155.8,151.4z
							 M178.2,166.7v10.8c0,3-2.4,5.4-5.4,5.4c-2.2,0-4-1.3-4.9-3.2h3.2c0.9,0,1.6-0.7,1.6-1.5c0-0.9-0.7-1.6-1.6-1.6h-3.6v-2.6h3.6
							c0.9,0,1.6-0.7,1.6-1.6s-0.7-1.6-1.6-1.6h-3.6V168h3.6c0.9,0,1.6-0.7,1.6-1.6c0-0.9-0.7-1.5-1.6-1.5h-3.6
							c0.1-1.2,0.3-2.2,0.9-2.8c0.8-0.8,2.3-1.2,4.4-1.2c2.2,0,3.7,0.4,4.4,1.2C178.3,163,178.2,164.8,178.2,166.7L178.2,166.7z
							 M144.9,175.9c0,0.9-0.7,1.6-1.5,1.6h-24.9c-0.9,0-1.6-0.7-1.6-1.6s0.7-1.6,1.6-1.6h24.9C144.2,174.3,144.9,175,144.9,175.9
							L144.9,175.9z M144.9,175.9"/>
					</g>
				</g>
			</g>
		</g>
	</g>
	<g>
		<g>
			<g>
				<path class="st0" d="M130.5,70.1c-14.9,0-26.9,11.2-26.9,24.9v1.8c0,0.9,0.7,1.6,1.6,1.6h6.2c-0.1-1.1,0-2.2,0.1-3.2h-4.7V95
					c0-12,10.6-21.7,23.7-21.7s23.7,9.7,23.7,21.7v0.2h-3.3c0.1,1.1,0.2,2.2,0.1,3.2h4.7c0.9,0,1.6-0.7,1.6-1.6V95
					C157.4,81.3,145.3,70.1,130.5,70.1z"/>
			</g>
		</g>
	</g>
	<g>
		<g>
			<g>
				<path class="st3" d="M142.6,168H119c-5.8,0-10.5-4.7-10.5-10.5V97.3c0-5.8,4.7-10.5,10.5-10.5h23.5c5.8,0,10.5,4.7,10.5,10.5
					v60.2C153.1,163.2,148.4,168,142.6,168z M119,91c-3.4,0-6.2,2.8-6.2,6.2v60.2c0,3.4,2.8,6.2,6.2,6.2h23.5c3.4,0,6.2-2.8,6.2-6.2
					V97.3c0-3.4-2.8-6.2-6.2-6.2H119z"/>
			</g>
		</g>
	</g>
	<g>
		<g>
			<g>
				<path class="st3" d="M141.7,109.1h-21.8c-3.1,0-5.6,2.5-5.6,5.6c0,3.1,2.5,5.7,5.6,5.7h21.8c3.1,0,5.6-2.5,5.6-5.7
					C147.4,111.7,144.8,109.1,141.7,109.1z M141.7,117.3h-21.8c-1.4,0-2.5-1.1-2.5-2.5c0-1.4,1.1-2.5,2.5-2.5h21.8
					c1.4,0,2.5,1.1,2.5,2.5C144.3,116.2,143.1,117.3,141.7,117.3z"/>
			</g>
		</g>
	</g>
	<g>
		<g>
			<g>
				<g>
					<path class="st3" d="M79.4,135.8h2.2v12.7h-0.8c-0.9,0-1.6,0.7-1.6,1.6l0,8.2c0,0,7.8,0,7.8,0v-8.2c0-0.9-0.7-1.6-1.6-1.6h-0.8
						v-33.8c0-1.3,0.2-5.3,1.7-6.9c0.4-0.4,0.9-0.6,1.4-0.6c0.9,0,1.6-0.7,1.6-1.6c0-0.9-0.7-1.6-1.6-1.6c-1.4,0-2.7,0.5-3.7,1.6
						c-2.7,2.8-2.6,8.5-2.6,9.1v17.9h-2.2v-1.5h-2.5v6h2.5V135.8z M82.4,151.6h1.6v5.1h-1.6V151.6z"/>
				</g>
			</g>
			<g>
				<g>
					<path class="st3" d="M79,158.5v-8.4c0-1,0.8-1.8,1.8-1.8h0.6V136h-1.8v1.5h-2.9V131h2.9v1.5h1.8v-17.7c0-0.2-0.2-6.3,2.6-9.3
						c1-1.1,2.4-1.6,3.8-1.6c1,0,1.8,0.8,1.8,1.8s-0.8,1.8-1.8,1.8c-0.5,0-0.9,0.2-1.3,0.5c-1.4,1.4-1.7,5.2-1.6,6.8v33.6h0.6
						c1,0,1.8,0.8,1.8,1.8v8.4L79,158.5z M80.8,148.7c-0.7,0-1.3,0.6-1.3,1.3v8l7.4,0v-8c0-0.7-0.6-1.3-1.3-1.3h-1v-34
						c0-1.3,0.2-5.4,1.8-7.1c0.4-0.5,1-0.7,1.6-0.7c0.7,0,1.3-0.6,1.3-1.3s-0.6-1.3-1.3-1.3c-1.3,0-2.6,0.5-3.5,1.5
						c-2.7,2.8-2.5,8.7-2.5,9v18.2h-2.7v-1.5h-2.1v5.6h2.1v-1.5h2.6v13.1H80.8z M84.2,157h-2v-5.6h2V157z M82.6,156.6h1.1v-4.7h-1.1
						V156.6z"/>
				</g>
			</g>
		</g>
		<g>
			<g>
				<g>
					<path class="st3" d="M174.4,157.9v-34.7c0-0.9-0.7-1.5-1.6-1.5c-0.9,0-1.6,0.7-1.6,1.5v34.7L174.4,157.9z"/>
				</g>
			</g>
			<g>
				<g>
					<path class="st3" d="M174.6,158.1l-3.5,0v-34.9c0-1,0.8-1.8,1.8-1.8c1,0,1.8,0.8,1.8,1.8V158.1z M171.5,157.7l2.7,0v-34.5
						c0-0.7-0.6-1.3-1.3-1.3c-0.7,0-1.3,0.6-1.3,1.3V157.7z"/>
				</g>
			</g>
		</g>
		<g>
			<g>
				<g>
					<path class="st0" d="M178.2,175.6v1.8c0,3-2.4,5.4-5.4,5.4c-2.2,0-4-1.3-4.9-3.2h3.2c0.8,0,1.5-0.7,1.5-1.5
						c-2.6,0.9-5.3,1.6-7.8,2.1c1.1,3.3,4.3,5.7,8,5.7c4.7,0,8.5-3.8,8.5-8.5l0-4.1C180.4,174.2,179.4,174.9,178.2,175.6z"/>
				</g>
			</g>
		</g>
	</g>
	<g>
		<g>
			<g>
				<path class="st0" d="M130.3,84.3c-0.9,0-1.6-0.7-1.6-1.6v-11c0-0.9,0.7-1.6,1.6-1.6s1.6,0.7,1.6,1.6v11
					C132,83.6,131.2,84.3,130.3,84.3z"/>
			</g>
		</g>
	</g>
</g>
</svg>
