<?xml version="1.0" encoding="utf-8"?>
<!-- Generator: Adobe Illustrator 22.1.0, SVG Export Plug-In . SVG Version: 6.00 Build 0)  -->
<svg version="1.1" id="圖層_1" xmlns="http://www.w3.org/2000/svg" xmlns:xlink="http://www.w3.org/1999/xlink" x="0px" y="0px"
	 viewBox="0 0 256 256" style="enable-background:new 0 0 256 256;" xml:space="preserve">
<style type="text/css">
	.st0{fill:#37A0FF;}
	.st1{fill:#BEFAC8;}
	.st2{fill:#FFFFFF;}
	.st3{fill:#CECDC8;}
</style>
<g>
	<g>
		<g>
			<g>
				<path class="st0" d="M173.4,131.8H82.6c-7.1,0-12.8-5.7-12.8-12.8v-22c0-7.1,5.7-12.8,12.8-12.8h90.9c7.1,0,12.8,5.7,12.8,12.8
					v22C186.2,126,180.5,131.8,173.4,131.8z M82.6,87.4c-5.3,0-9.6,4.3-9.6,9.6v22c0,5.3,4.3,9.6,9.6,9.6h90.9
					c5.3,0,9.6-4.3,9.6-9.6v-22c0-5.3-4.3-9.6-9.6-9.6H82.6z"/>
			</g>
		</g>
	</g>
	<g>
		<g>
			<g>
				<rect x="81.4" y="112.7" class="st0" width="93.2" height="3.2"/>
			</g>
		</g>
	</g>
	<g>
		<g>
			<g>
				<rect x="90.5" y="118.7" class="st0" width="75" height="3.2"/>
			</g>
		</g>
	</g>
	<g>
		<g>
			<g>
				<g>
					<path class="st3" d="M122.1,163.6c-1.3,0-2.4-1.1-2.4-2.4v-24.6c0-1.3,1.1-2.4,2.4-2.4s2.4,1.1,2.4,2.4v24.6
						C124.5,162.5,123.4,163.6,122.1,163.6z"/>
				</g>
			</g>
		</g>
		<g>
			<g>
				<g>
					<path class="st3" d="M133.9,163.6c-1.3,0-2.4-1.1-2.4-2.4v-24.6c0-1.3,1.1-2.4,2.4-2.4s2.4,1.1,2.4,2.4v24.6
						C136.3,162.5,135.2,163.6,133.9,163.6z"/>
				</g>
			</g>
		</g>
		<g>
			<g>
				<g>
					<path class="st3" d="M151.8,171.9c-6.4,0-10.2-5.5-10.2-10.8v-21.4c0-1.3,1.1-2.4,2.4-2.4s2.4,1.1,2.4,2.4v21.4c0,3,2,6,5.4,6
						c4,0,6.2-2.3,6.2-6.5c0-1.3,1.1-2.4,2.4-2.4s2.4,1.1,2.4,2.4C162.7,167.5,158.4,171.9,151.8,171.9z"/>
				</g>
			</g>
		</g>
		<g>
			<g>
				<g>
					<path class="st3" d="M104.2,171.9c-6.7,0-11-4.4-11-11.2c0-1.3,1.1-2.4,2.4-2.4c1.3,0,2.4,1.1,2.4,2.4c0,4.2,2.2,6.5,6.2,6.5
						c3.4,0,5.4-3.1,5.4-6v-21.4c0-1.3,1.1-2.4,2.4-2.4s2.4,1.1,2.4,2.4v21.4C114.4,166.4,110.6,171.9,104.2,171.9z"/>
				</g>
			</g>
		</g>
	</g>
	<g>
		<g>
			<g>
				<path class="st0" d="M95.9,102.7H84.5c-1.3,0-2.5-1.1-2.5-2.5v-2.5c0-1.3,1.1-2.5,2.5-2.5h11.4c1.3,0,2.5,1.1,2.5,2.5v2.5
					C98.3,101.6,97.2,102.7,95.9,102.7z"/>
			</g>
		</g>
	</g>
</g>
</svg>
