<?xml version="1.0" encoding="utf-8"?>
<!-- Generator: Adobe Illustrator 22.1.0, SVG Export Plug-In . SVG Version: 6.00 Build 0)  -->
<svg version="1.1" id="圖層_1" xmlns="http://www.w3.org/2000/svg" xmlns:xlink="http://www.w3.org/1999/xlink" x="0px" y="0px"
	 viewBox="0 0 256 256" style="enable-background:new 0 0 256 256;" xml:space="preserve">
<style type="text/css">
	.st0{fill:#37A0FF;}
	.st1{fill:#BEFAC8;}
	.st2{fill:#FFFFFF;}
	.st3{fill:#CECDC8;}
</style>
<g>
	<path class="st3" d="M184.6,99.4l4.6-5c0.5-0.6,0.8-1.3,0.7-2c0-0.8-0.4-1.4-0.9-2c-1.1-1-3-0.9-4,0.2l-5.9,6.3l-0.7-0.1l-10.3,0
		l-0.2-0.5c-0.1-0.3-0.2-0.6-0.4-0.9l-0.2-0.5l7.2-7.2c0.1-0.1,0.2-0.2,0.4-0.6l0.2-0.4l8.3,0.3c1.5,0,2.7-1.2,2.8-2.7
		c0.1-1.5-1.1-2.9-2.7-2.9l-6.8-0.3l-0.3-6.7c-0.1-1.5-1.3-2.7-2.9-2.7c-0.7,0-1.4,0.4-1.9,0.9c-0.5,0.6-0.8,1.3-0.7,2l0.3,8.6
		l-0.3,0.2c-0.1,0.1-0.1,0.1-0.2,0.1l-7.4,7.3l-0.4-0.2c-0.3-0.1-0.6-0.3-0.9-0.4l-0.5-0.2V80c0-0.1,0-0.3-0.1-0.7l-0.1-0.4l6-5.5
		c0.6-0.5,0.9-1.2,0.9-1.9c0-0.8-0.2-1.5-0.7-2c-1-1.1-2.9-1.2-4-0.2l-5,4.6l-5-4.6c-1.1-1-2.9-0.9-4,0.2c-0.5,0.6-0.8,1.3-0.7,2
		c0,0.8,0.4,1.4,0.9,1.9l6.3,5.9l-0.1,0.4c0,0.1,0,0.2-0.1,0.2l-0.1,10.4l-0.5,0.2c-0.3,0.1-0.6,0.2-0.9,0.4l-0.5,0.2l-7.2-7.2
		c-0.1-0.1-0.2-0.2-0.4-0.3l-0.6-0.4l0.3-8.2c0-0.8-0.2-1.5-0.7-2c-0.5-0.6-1.2-0.9-2-0.9l-0.2,0c-1.5,0-2.6,1.2-2.7,2.7l-0.3,6.8
		l-6.7,0.3c-1.5,0.1-2.8,1.4-2.7,2.9c0.1,1.5,1.3,2.7,2.9,2.7h0c0.1,0,7.1-0.3,8.6-0.3l0.2,0.3c0.1,0.1,0.1,0.1,0.1,0.2l7.3,7.4
		l-0.2,0.4c-0.1,0.3-0.3,0.6-0.4,0.9l-0.2,0.5h-10.1c-0.1,0-0.2,0-0.5,0.1L138,97l-5.5-6c-1-1.1-2.9-1.2-4-0.2
		c-0.6,0.5-0.9,1.2-0.9,2c0,0.8,0.2,1.5,0.7,2l4.6,5l-4.6,5c-0.5,0.6-0.8,1.3-0.7,2c0,0.7,0.4,1.4,0.9,2c1.1,1,3,0.9,4-0.2l5.9-6.3
		l0.4,0.1c0.1,0,0.2,0,0.2,0.1l10.4,0.1l0.2,0.5c0.1,0.3,0.2,0.6,0.4,0.9l0.2,0.5l-7.2,7.2c-0.1,0.1-0.2,0.2-0.3,0.4l-0.4,0.6
		l-8.3-0.3c-1.5,0-2.7,1.2-2.8,2.7c-0.1,1.5,1.1,2.9,2.7,2.9l6.8,0.3l0.3,6.7c0.1,1.5,1.3,2.7,2.9,2.7c0,0,0,0,0,0
		c0.8,0,1.4-0.4,2-0.9c0.5-0.6,0.8-1.3,0.7-2l-0.3-8.6l0.3-0.2c0.1-0.1,0.1-0.1,0.2-0.1l7.4-7.3l0.4,0.2c0.3,0.1,0.6,0.3,0.9,0.4
		l0.5,0.2v10.1c0,0.1,0,0.3,0.1,0.5l0.2,0.7l-6,5.5c-0.6,0.5-0.9,1.2-0.9,1.9c0,0.8,0.2,1.5,0.7,2c0.5,0.6,1.3,0.9,2.1,0.9
		c0.7,0,1.4-0.3,1.9-0.7l5-4.6l5,4.6c1.1,1,3,0.9,4-0.2c0.5-0.6,0.8-1.3,0.7-2c0-0.8-0.4-1.4-0.9-2l-6.3-5.9l0.1-0.7l0-10.3l0.5-0.2
		c0.3-0.1,0.6-0.2,0.9-0.4l0.5-0.2l7.2,7.2c0.1,0.1,0.2,0.2,0.6,0.4l0.4,0.2l-0.3,8.2c0,0.8,0.2,1.5,0.7,2c0.5,0.6,1.2,0.9,2.1,0.9
		c1.5,0,2.7-1.2,2.8-2.7l0.3-6.8l6.7-0.3c1.5-0.1,2.8-1.4,2.7-2.9c-0.1-1.5-1.2-2.7-2.7-2.7l-8.9,0.4l-0.2-0.3
		c-0.1-0.1-0.1-0.2-0.1-0.2l-7.3-7.4l0.2-0.4c0.2-0.3,0.3-0.6,0.4-0.9l0.2-0.5h10.1c0.1,0,0.2,0,0.5-0.1l0.7-0.2l5.5,6
		c1,1.1,2.9,1.2,4,0.2c0.6-0.5,0.9-1.2,0.9-2c0-0.8-0.2-1.5-0.7-2L184.6,99.4z M163,99.6c0,2.4-1.9,4.3-4.3,4.3
		c-2.4,0-4.3-1.9-4.3-4.3c0-2.4,1.9-4.3,4.3-4.3C161,95.3,163,97.2,163,99.6z"/>
	<g>
		<g>
			<g>
				<path class="st0" d="M121.5,150.3L121.5,150.3c-0.9-0.5-1.7-1.1-2.6-2v-17.2c0-2.7-2.2-4.8-4.8-4.8s-4.8,2.2-4.8,4.8v17.2
					c-0.9,0.8-1.7,1.5-2.6,2c-5.1,2.7-8.2,8-8.2,13.8c0,8.6,7,15.6,15.6,15.6c8.6,0,15.6-7,15.6-15.6
					C129.7,158.3,126.5,153,121.5,150.3z"/>
			</g>
		</g>
	</g>
	<g>
		<g>
			<g>
				<path class="st0" d="M114,194c-16.5,0-29.9-13.4-29.9-29.9c0-10.7,5.7-20.5,14.8-25.8V77.1C99,68.8,105.7,62,114,62
					c8.3,0,15.1,6.8,15.1,15.1v61.1c9.2,5.4,14.8,15.2,14.8,25.8C143.9,180.6,130.5,194,114,194z M114,65.3
					c-6.5,0-11.8,5.3-11.8,11.8v63.1l-0.9,0.5c-8.6,4.7-14,13.7-14,23.4c0,14.7,12,26.6,26.6,26.6s26.6-12,26.6-26.6
					c0-9.8-5.4-18.8-14-23.4l-0.9-0.5V77.1C125.9,70.6,120.6,65.3,114,65.3z"/>
			</g>
		</g>
	</g>
</g>
</svg>
