<?xml version="1.0" encoding="utf-8"?>
<!-- Generator: Adobe Illustrator 19.0.0, SVG Export Plug-In . SVG Version: 6.00 Build 0)  -->
<svg version="1.1" id="圖層_1" xmlns="http://www.w3.org/2000/svg" xmlns:xlink="http://www.w3.org/1999/xlink" x="0px" y="0px"
	 viewBox="110 -25 250 80" style="enable-background:new 110 -25 250 80;" xml:space="preserve">
<style type="text/css">
	.st0{fill:#37A0FF;}
	.st1{fill:#BEFAC8;}
</style>
<g>
	<g>
		<path class="st0" d="M201.8,9.7c0-2.1-0.8-3.3-2.6-4.2c-4.3-2.1-8.6-4.3-12.9-6.5c-2.5-1.2-4.9-2.4-8.2-4.1c0,4.4,0,8,0,12.3
			c-7.7-4-14.9-7.6-22.5-11.5v39.7c14.2,0,28.4,0,42.7,0c2.6,0,3.5-1.1,3.5-3.7C201.8,24.5,201.8,17.1,201.8,9.7z"/>
		<path class="st1" d="M164.4,9.3c-0.3,0.3-0.4,0.6-0.4,1c0,0.3,0.2,0.7,0.5,1c0.3,0.2,0.6,0.3,0.9,0.3c0.4,0,0.7-0.1,0.9-0.4
			c0.3-0.2,0.4-0.6,0.4-1s-0.2-0.8-0.4-1C165.8,8.8,165,8.8,164.4,9.3z"/>
		<path class="st1" d="M173.6,24.5c0.3,0.2,0.6,0.3,0.9,0.3s0.7-0.2,0.9-0.4c0.3-0.2,0.4-0.6,0.4-1c0-0.5-0.3-0.8-0.4-1
			c-0.5-0.5-1.3-0.5-2,0.1c-0.2,0.3-0.3,0.6-0.3,0.9C173.1,23.9,173.2,24.2,173.6,24.5z"/>
		<path class="st1" d="M181,20.1c0.4,0,0.7-0.1,1-0.4c0.2-0.3,0.4-0.6,0.4-0.9c0-0.5-0.2-0.8-0.4-1c-0.5-0.5-1.4-0.5-1.8,0
			c-0.3,0.2-0.5,0.6-0.5,1c0,0.3,0.2,0.7,0.4,1C180.4,19.9,180.7,20.1,181,20.1z"/>
		<path class="st1" d="M186.8,15.4c0.2-0.3,0.4-0.6,0.4-0.9c0-0.3-0.1-0.6-0.4-1c-0.6-0.5-1.4-0.5-1.8,0c-0.3,0.2-0.5,0.6-0.5,1
			c0,0.2,0.1,0.4,0.2,0.6c-0.5-0.2-1.1-0.2-1.6,0.3c-0.2,0.3-0.3,0.6-0.3,0.9c0,0.4,0.1,0.7,0.5,1c0.3,0.2,0.6,0.3,0.9,0.3
			s0.6-0.1,0.9-0.3l0.1-0.1c0.2-0.3,0.3-0.6,0.3-0.9c0-0.2-0.1-0.4-0.2-0.6c0.2,0.1,0.4,0.2,0.6,0.2
			C186.2,15.9,186.5,15.7,186.8,15.4z"/>
		<path class="st1" d="M177.2,12.9c-0.6-0.5-1.3-0.5-2,0.1c-0.2,0.3-0.3,0.6-0.3,0.9c0,0.3,0.2,0.7,0.5,1c0.3,0.2,0.6,0.3,0.9,0.3
			c0.3,0,0.7-0.2,0.9-0.4c0.3-0.2,0.4-0.6,0.4-1C177.6,13.4,177.4,13.1,177.2,12.9z"/>
		<path class="st1" d="M171.8,17.1c-0.5-0.5-1.4-0.5-1.9-0.1c-0.3,0.2-0.5,0.6-0.5,1c0,0.3,0.2,0.7,0.4,1c0.3,0.2,0.6,0.4,0.9,0.4
			c0.4,0,0.7-0.1,1-0.4c0.2-0.3,0.4-0.6,0.4-0.9C172.2,17.6,172,17.3,171.8,17.1z"/>
		<path class="st1" d="M166.2,22.3c0-0.5-0.2-0.8-0.4-1c-0.3-0.3-0.6-0.4-1-0.4c-0.4,0-0.7,0.2-0.8,0.3c-0.3,0.2-0.5,0.6-0.5,1
			s0.1,0.7,0.4,0.9c0.2,0.3,0.6,0.4,0.9,0.4c0.4,0,0.7-0.1,1-0.4C166,23,166.2,22.6,166.2,22.3z"/>
		<path class="st1" d="M169,12.9c0.3,0,0.6-0.1,1-0.4c0.2-0.2,0.4-0.6,0.4-1c0-0.5-0.3-0.8-0.4-1c-0.5-0.5-1.3-0.5-2,0.1
			c-0.2,0.3-0.3,0.6-0.3,0.9c0,0.4,0.1,0.7,0.4,1C168.3,12.7,168.7,12.9,169,12.9z"/>
		<path class="st1" d="M163.3,16.7c0.3,0.2,0.6,0.3,0.9,0.3s0.6-0.1,0.9-0.3l0.1-0.1c0.2-0.3,0.3-0.6,0.3-0.9c0-0.5-0.3-0.8-0.4-1
			c-0.5-0.5-1.3-0.5-2,0.1c-0.2,0.3-0.3,0.6-0.3,0.9C162.9,16,163,16.4,163.3,16.7z"/>
		<path class="st1" d="M159.1,18.3c-0.6-0.5-1.4-0.5-1.9,0.1c-0.2,0.2-0.4,0.6-0.4,0.9c0,0.3,0.1,0.6,0.4,1c0.2,0.2,0.6,0.4,0.9,0.4
			c0.4,0,0.7-0.1,0.9-0.4c0.3-0.2,0.4-0.6,0.4-1C159.6,18.8,159.4,18.5,159.1,18.3z"/>
		<path class="st1" d="M151.8,22c-0.2,0.3-0.3,0.6-0.3,0.9c0,0.4,0.1,0.7,0.4,1c0.2,0.2,0.6,0.4,0.9,0.4s0.7-0.2,1-0.4
			c0.2-0.2,0.4-0.6,0.4-0.9c0-0.5-0.3-0.8-0.4-1C153.2,21.4,152.4,21.4,151.8,22z"/>
		<path class="st1" d="M146.2,26.7c0.4,0,0.8-0.2,0.9-0.4c0.3-0.2,0.4-0.6,0.4-1c0-0.5-0.2-0.8-0.4-1c-0.5-0.5-1.4-0.5-2,0.1
			c-0.2,0.3-0.3,0.6-0.3,0.9c0,0.3,0.1,0.7,0.4,0.9C145.5,26.5,145.8,26.7,146.2,26.7z"/>
		<path class="st1" d="M139,28.5c0.3,0,0.7-0.2,1-0.4c0.2-0.2,0.4-0.6,0.4-0.9c0-0.3-0.1-0.6-0.4-1c-0.6-0.5-1.4-0.5-1.8,0
			c-0.3,0.2-0.5,0.6-0.5,1s0.1,0.7,0.5,1C138.4,28.4,138.7,28.5,139,28.5z"/>
		<path class="st1" d="M131.2,29.1c0.4,0,0.7-0.1,0.9-0.4c0.3-0.2,0.4-0.6,0.4-1c0-0.3-0.1-0.6-0.4-1c-0.5-0.5-1.3-0.5-2,0.1
			c-0.2,0.3-0.3,0.6-0.3,0.9c0,0.3,0.1,0.7,0.4,0.9C130.5,28.9,130.8,29.1,131.2,29.1z"/>
		<path class="st1" d="M160.6,12.3c0.4,0,0.6-0.2,0.8-0.3l0.2-0.2c0.2-0.3,0.3-0.6,0.3-0.9c0-0.5-0.2-0.8-0.4-1
			c-0.5-0.5-1.3-0.5-1.9,0l0,0.1c-0.2,0.3-0.3,0.6-0.3,0.9c0,0.2,0.1,0.6,0.5,1C160,12.1,160.3,12.3,160.6,12.3z"/>
		<path class="st1" d="M155.8,14.7c0.3,0,0.6-0.1,0.9-0.3l0.1-0.1c0.2-0.3,0.3-0.6,0.3-0.9c0-0.5-0.3-0.8-0.4-1
			c-0.5-0.5-1.3-0.5-2,0.1c-0.2,0.3-0.3,0.6-0.3,0.9c0,0.3,0.2,0.7,0.5,1C155.2,14.5,155.5,14.7,155.8,14.7z"/>
		<path class="st1" d="M149.8,17.7c0.4,0,0.6-0.2,0.8-0.3l0.2-0.2c0.2-0.3,0.3-0.6,0.3-0.9c0-0.4-0.1-0.7-0.4-1
			c-0.5-0.5-1.3-0.5-2,0.1c-0.2,0.3-0.3,0.6-0.3,0.9c0,0.3,0.2,0.7,0.5,1C149.2,17.5,149.5,17.7,149.8,17.7z"/>
		<path class="st1" d="M143.8,19.5c0.3,0,0.6-0.1,0.9-0.4c0.3-0.2,0.4-0.6,0.4-1s-0.1-0.7-0.5-1.1c-0.6-0.4-1.3-0.4-1.9,0.1
			c-0.2,0.3-0.3,0.6-0.3,0.9c0,0.4,0.1,0.7,0.4,1S143.5,19.5,143.8,19.5z"/>
		<path class="st1" d="M136.8,19c-0.2,0.3-0.3,0.6-0.3,0.9c0,0.3,0.1,0.6,0.4,1c0.2,0.2,0.6,0.4,0.9,0.4c0.4,0,0.7-0.1,0.9-0.4
			c0.3-0.2,0.4-0.6,0.4-1s-0.1-0.7-0.4-1C138.2,18.4,137.4,18.4,136.8,19z"/>
		<path class="st1" d="M130.1,19c-0.2,0.3-0.3,0.6-0.3,0.9c0,0.3,0.2,0.7,0.4,1c0.2,0.2,0.6,0.4,0.9,0.4c0.3,0,0.7-0.2,1-0.4
			c0.2-0.2,0.4-0.6,0.4-0.9c0-0.5-0.2-0.8-0.4-1C131.6,18.4,130.8,18.4,130.1,19z"/>
		<path class="st1" d="M149,10.3c0,0.3,0.1,0.7,0.4,0.9c0.3,0.3,0.6,0.4,1,0.4c0.3,0,0.7-0.1,1-0.4c0.3-0.3,0.4-0.6,0.4-1
			s-0.1-0.7-0.4-1c-0.5-0.5-1.4-0.5-2,0.1C149.2,9.7,149,10,149,10.3z"/>
		<path class="st1" d="M144.6,13.1c0.2,0.2,0.6,0.4,0.9,0.4s0.6-0.1,0.9-0.3l0.1-0.1c0.2-0.3,0.3-0.6,0.3-0.9c0-0.5-0.3-0.8-0.4-1
			c-0.5-0.5-1.3-0.5-2,0.1c-0.2,0.3-0.3,0.6-0.3,0.9C144.2,12.4,144.4,12.8,144.6,13.1z"/>
		<path class="st1" d="M139.6,14.7c0.3,0,0.6-0.1,0.9-0.3l0.1-0.1c0.2-0.3,0.3-0.6,0.3-0.9c0-0.5-0.2-0.8-0.4-1
			c-0.6-0.5-1.3-0.5-2,0.1c-0.2,0.3-0.3,0.6-0.3,0.9c0,0.3,0.2,0.7,0.5,1C139,14.5,139.3,14.7,139.6,14.7z"/>
		<path class="st1" d="M133.9,14.8c0.2-0.2,0.4-0.6,0.4-0.9c0-0.4-0.1-0.7-0.4-1c-0.5-0.5-1.3-0.5-2,0.1c-0.2,0.3-0.3,0.6-0.3,0.9
			c0,0.4,0.1,0.7,0.5,1c0.3,0.2,0.6,0.3,0.9,0.3C133.3,15.3,133.7,15.1,133.9,14.8z"/>
		<path class="st1" d="M129.4,8.6c0.4,0,0.6-0.2,0.8-0.3l0.1-0.1c0.2-0.2,0.4-0.6,0.4-1c0-0.5-0.3-0.8-0.4-1c-0.5-0.5-1.4-0.5-2,0.1
			c-0.2,0.3-0.3,0.7-0.3,1s0.2,0.7,0.4,1C128.7,8.5,129,8.6,129.4,8.6z"/>
		<path class="st1" d="M180,21.7c0-0.5-0.3-0.8-0.4-1c-0.5-0.5-1.3-0.5-2,0.1c-0.2,0.3-0.3,0.6-0.3,0.9c0,0.4,0.1,0.7,0.4,0.9
			c0.3,0.3,0.6,0.4,1,0.4s0.7-0.1,1-0.4C179.9,22.4,180,22,180,21.7z"/>
		<path class="st1" d="M186.1,20.1l-0.1,0.1c-0.2,0.3-0.3,0.6-0.3,0.9c0,0.4,0.1,0.7,0.5,1c0.3,0.2,0.6,0.3,0.9,0.3
			c0.3,0,0.7-0.2,1-0.4c0.2-0.2,0.4-0.6,0.4-0.9c0-0.5-0.2-0.8-0.4-1C187.5,19.6,186.7,19.6,186.1,20.1z"/>
	</g>
</g>
<g>
	<g>
		<path d="M240.5,14.9L240.5,14.9l-0.5-0.4h1.9v-2.8h-9.7v2.8h1.8l-0.5,0.5l0,0c0.3,0.3,0.7,0.7,1,1h-4.3v0.7h13.4V16h-4.3
			C239.8,15.7,240.2,15.3,240.5,14.9z M240.9,12.4v1.5h-7.7v-1.5H240.9z M235.5,15.7c-0.4-0.4-0.8-0.8-1.2-1.1h5.4
			c-0.5,0.5-1.1,1.1-1.6,1.5h-3L235.5,15.7L235.5,15.7z"/>
		<polygon points="242.7,2.7 241.8,2.7 241.8,8.5 237.5,8.5 237.5,2.6 236.7,2.6 236.7,8.5 232.3,8.5 232.3,2.7 231.5,2.7 
			231.5,9.2 242.7,9.2 		"/>
		<polygon points="239.3,8.5 240,8.5 240,7.4 241.2,7.4 241.2,6.8 240,6.8 240,5.9 241.1,5.9 241.1,5.3 240,5.3 240,4.4 241.1,4.4 
			241.1,3.8 240,3.8 240,2.8 239.3,2.8 239.3,3.8 238.2,3.8 238.2,4.4 239.3,4.4 239.3,5.3 238.3,5.3 238.3,5.9 239.3,5.9 
			239.3,6.8 238.1,6.8 238.1,7.4 239.3,7.4 		"/>
		<rect x="230.9" y="10.1" width="12.5" height="0.7"/>
		<polygon points="234.2,8.5 234.9,8.5 234.9,7.4 236.1,7.4 236.1,6.8 234.9,6.8 234.9,5.9 235.9,5.9 235.9,5.3 234.9,5.3 
			234.9,4.4 236,4.4 236,3.8 234.9,3.8 234.9,2.8 234.2,2.8 234.2,3.8 233,3.8 233,4.4 234.2,4.4 234.2,5.3 233.1,5.3 233.1,5.9 
			234.2,5.9 234.2,6.8 233,6.8 233,7.4 234.2,7.4 		"/>
		<g>
			<path d="M263.7,5.5L263.7,5.5l0.8-0.2l0,0l-0.1-0.2c-0.2-0.7-0.6-1.6-0.9-2.2l0,0l-0.8,0.3l0,0C263,3.8,263.4,4.8,263.7,5.5z"/>
			<path d="M268.4,12.4h5.9v-0.8h-6v-1.1h4.7V9.7h-4.7V8.6h5.5V7.8H270c0.3-0.3,0.8-1,1.2-1.5l0,0L270.7,6h3.7V5.2h-4.7V2.7h-0.9
				v2.5h-2V2.7h-0.9v2.5h-4.7V6h3.7l-0.5,0.4l0,0l0,0c0.1,0.1,0.2,0.2,0.3,0.4c0.3,0.3,0.6,0.7,0.8,1h-3.8v0.8h5.6v1.1h-4.7v0.8h4.7
				v1.1h-6v0.8h5.8c-1.6,1.2-3.3,2.4-6,3.3l0,0l0.3,0.9l0,0c3-1.2,4.3-2.1,5.9-3.3V17h1v-3.7c1.5,1.1,3.1,2.1,5.9,3.3l0,0l0.3-0.9
				l0,0C271.6,14.6,269.9,13.5,268.4,12.4z M266.6,7.7c-0.4-0.5-0.9-1.1-1.4-1.7h5.2c-0.4,0.5-1,1.3-1.5,1.8L266.6,7.7L266.6,7.7
				L266.6,7.7z"/>
			<path d="M271.7,5.5c0.3-0.6,0.9-1.6,1.1-2.3l0,0L272,2.9l0,0c-0.2,0.6-0.7,1.6-1.1,2.2l0,0L271.7,5.5L271.7,5.5z"/>
		</g>
		<g>
			<g>
				<path d="M214.6,16.7l-0.8-0.2c0.4-1.3,0.7-2.9,0.9-4l0.8,0.1C215.2,13.8,214.9,15.5,214.6,16.7z M218.4,11.2
					c-0.8,0.1-2.6,0.3-3.9,0.4l-0.2-0.8c0,0,0.2-0.2,0.3-0.3c0.6-0.7,1.3-1.7,2-2.7c-0.7,0-1.4,0.1-2.2,0.2l-0.2-0.8
					c0,0,0.2-0.3,0.3-0.4c0.6-0.8,1.7-2.8,2.4-4.3l0.8,0.3C217,4.2,216,6.1,215.4,7h1.8c0.5-0.8,0.9-1.5,1.3-2.2l0.7,0.4
					c-1.1,1.8-2.4,3.8-3.6,5.5l2.5-0.3c-0.2-0.6-0.5-1.2-0.7-1.6l0.7-0.3c0.4,0.8,0.9,2.2,1.3,3.1l-0.7,0.3L218.4,11.2z M216.3,12.6
					h0.7c0.1,1,0.3,2.8,0.4,3.8l-0.8,0.1C216.5,15.4,216.4,13.6,216.3,12.6z M217.8,12.5l0.7-0.2c0.3,0.9,0.6,1.8,0.9,2.7l-0.7,0.2
					C218.3,14.3,218.1,13.5,217.8,12.5z M219,8.8V8h5.8l0.2-1.3h-4.7l0.8-4.2h0.9l-0.2,0.9h4.6L225.7,8h2.1v0.8H219z M221.6,4.2
					L221.2,6h3.9l0.3-1.8H221.6z"/>
				<path d="M228.2,15l-0.4,0.8c-1.7-1.2-2.9-2.5-3.6-4.2v3.6c0,1.3-0.4,1.7-1.7,1.7H221l-0.2-0.8h1.3c1,0,1.2-0.2,1.2-1.1v-2.5
					c-0.9,0.7-2.6,2-3.1,2.4l-0.5-0.7c0.6-0.4,2.7-2,3.6-2.7V8.8h0.8v0.7c0.2,0.8,0.6,1.6,0.9,2.2c0.7-0.6,1.4-1.6,1.9-2.4l0.6,0.5
					c-0.5,0.7-1.4,1.9-2.1,2.6C226.1,13.3,227,14.2,228.2,15"/>
				<path d="M220.3,9.8l0.6-0.5c0.5,0.5,1.7,1.9,2.1,2.5l-0.6,0.5C221.9,11.8,220.7,10.3,220.3,9.8z"/>
			</g>
		</g>
		<path d="M251.2,10.9h2.4V7.4h-2.4V10.9z M252.9,8.1v2.1h-1V8.1H252.9z"/>
		<rect x="251" y="5.2" width="2.9" height="0.7"/>
		<path d="M250.7,13.8c-1.1,0.7-3.2,1.7-4.6,2.3l0,0l0.4,0.9l0,0c1.4-0.6,3.5-1.6,4.7-2.4l0,0L250.7,13.8L250.7,13.8z"/>
		<path d="M254,13.8L254,13.8l-0.4,0.8l0,0c1,0.5,3.5,1.6,4.7,2.2l0,0l0.4-0.9l0,0C257.6,15.4,255.2,14.3,254,13.8z"/>
		<path d="M258.1,3.2L258.1,3.2h-2.7V4h1.8l-0.1,2.3h-1.6v0.8h1.6L257,9.3h-1.6v0.8h1.5l-0.1,2.2h-1.9V2.8h-5.4v9.5h-1.9v-2.2h1.6
			V9.3h-1.6V7.1h1.6V6.3h-1.6V3.9h1.9V3.1l-2.7,0.1v0.3l0.2,8.8h-1.3v0.8h13.7v-0.8h-1.3L258.1,3.2z M254.3,3.6v8.7h-3.8V3.6
			C250.5,3.6,254.3,3.6,254.3,3.6z"/>
		<path d="M283,2.8L283,2.8l-1-0.2l0,0l0,0c-0.2,0.6-0.5,1.2-0.8,2h-4.4v0.9h3.9c-1.1,1.9-2.5,3.7-4.3,5.2l0,0l0.4,1l0,0
			c0.9-0.8,1.7-1.5,2.4-2.3V17h1v-3.1h7v0.9c0,0.8-0.1,1-1.1,1h-1.9l0.2,0.8l0,0h2c1.3,0,1.8-0.4,1.8-1.7V7.3h-7.5
			c0.4-0.6,0.8-1.3,1.2-2h8.2V4.4h-7.7C282.5,4,282.8,3.4,283,2.8z M287.2,11.1v2h-7v-2H287.2z M280.2,10.3V8.4h7v1.9H280.2z"/>
		<path d="M302.3,13.5c0.8-0.6,1.7-1.3,2.5-1.9l0,0l-0.5-0.7l0,0c-0.8,0.7-1.6,1.4-2.5,1.9c-0.4-0.7-0.8-1.5-1.1-2.6h3.4V3.6h-6.5
			v11.9c0,0.3,0,0.5-0.5,0.7l0,0l0.4,0.9l0,0c1.2-0.6,3.3-1.6,3.7-1.7l0,0l-0.1-0.9l-2.6,1.2v-5.3h1.3c0.9,3.2,2.2,4.8,5,6.3l0,0
			l0.6-0.8l0,0l0,0C304,15.1,303,14.4,302.3,13.5z M303.2,7.4v2h-4.7v-2H303.2z M298.5,6.5V4.4h4.7v2.1H298.5z"/>
		<path d="M296.6,4.4V3.6h-4V17h0.9V4.4h2.2l-1.2,4l0,0l0,0c0.8,1.2,1.2,2.4,1.2,3.2c0,1.2-0.3,1.5-1.3,1.5h-0.7l0.2,0.8l0,0h0.7
			c1.5,0,2-0.6,2-2.2c0-1-0.4-2.3-1.2-3.6L296.6,4.4z"/>
		<path d="M312.9,3.4L312.9,3.4L312,3l0,0c-1,2.7-2.6,4.9-4.9,6.8l0,0l0.6,0.8l0,0C310.1,8.6,311.8,6.3,312.9,3.4z"/>
		<path d="M316,10.9L316,10.9l-0.8,0.5l2.1,3.4l-6.8,0.4c1.3-1.8,2.8-4.5,3.8-6.7l0,0l-0.9-0.4l0,0l0,0c-1,2.4-2.6,5.1-3.9,6.8
			c-0.2,0.3-0.4,0.4-1.1,0.5l0,0l0.3,1l0,0c2.3-0.3,8-0.6,9.1-0.6l0.8,1.4l0,0l0.8-0.5l0,0l0,0C318.5,14.9,316.9,12.4,316,10.9z"/>
		<path d="M315.9,2.8L315.9,2.8L315,3.1l0,0l0,0c1.1,3.4,2.6,5.5,5.2,7.5l0,0l0.7-0.8l0,0C318.4,8,317.1,6.2,315.9,2.8z"/>
		<path d="M331.3,9.6h-7V16h1v-1.3h5.9L331.3,9.6L331.3,9.6z M330.3,10.5v3.2h-4.9v-3.2H330.3z"/>
		<path d="M323.6,3.7v1h10.3v9.8c0,1-0.2,1.3-1.3,1.3h-2.1l0.2,1h2.3c1.4,0,1.9-0.5,1.9-1.9V3.7H323.6z"/>
		<rect x="322.9" y="6.7" width="10" height="0.9"/>
	</g>
	<path d="M218.6,36c-1.4,0-2.6-0.5-3.6-1.5c-1.3-1.3-1.3-2.9-1.3-5.2V29c0-2.3,0-3.9,1.3-5.2c1-1,2.1-1.5,3.6-1.5
		c2.6,0,4.4,1.4,4.9,3.9h-2.2c-0.4-1.3-1.3-2.1-2.8-2.1c-0.8,0-1.5,0.3-2,0.9c-0.6,0.7-0.7,1.4-0.7,4.1c0,2.7,0.1,3.5,0.7,4.2
		c0.5,0.5,1.2,0.8,2,0.8c0.9,0,1.6-0.3,2.2-0.9c0.5-0.5,0.7-1.2,0.7-2.1v-0.8h-2.6v-1.7h4.7v1.8c0,2-0.4,3.1-1.3,4.1
		C221.3,35.5,220.1,36,218.6,36z"/>
	<path d="M234.7,35.9l-2.7-5.6h-2.5v5.6h-2.1V22.4h5.2c2.5,0,4.3,1.6,4.3,4c0,1.6-0.9,2.9-2.4,3.4l-0.3,0.1l3.1,5.9L234.7,35.9
		L234.7,35.9z M229.5,28.6h2.9c1.4,0,2.3-0.9,2.3-2.2s-0.9-2.2-2.3-2.2h-2.9V28.6z"/>
	<polygon points="240.6,35.9 240.6,22.4 249.3,22.4 249.3,24.3 242.8,24.3 242.8,28.2 248.3,28.2 248.3,30 242.8,30 242.8,34 
		249.3,34 249.3,35.9 	"/>
	<polygon points="253,35.9 253,22.4 261.6,22.4 261.6,24.3 255.1,24.3 255.1,28.2 260.7,28.2 260.7,30 255.1,30 255.1,34 261.6,34 
		261.6,35.9 	"/>
	<polygon points="273.5,35.9 267.5,26.6 267.5,35.9 265.3,35.9 265.3,22.4 267.3,22.4 273.3,31.8 273.3,22.4 275.5,22.4 275.5,35.9 
			"/>
	<polygon points="287.7,35.9 283.2,22.4 285.5,22.4 288.5,32.3 291.5,22.4 293.8,22.4 289.3,35.9 	"/>
	<path d="M303.8,35.9l-0.8-2.5h-5.4l-0.8,2.5h-2.2l4.9-13.5h1.7l4.9,13.5H303.8z M298.1,31.7h4.3l-2.1-6.3L298.1,31.7z"/>
	<polygon points="308.9,35.9 308.9,22.4 311,22.4 311,34 317.4,34 317.4,35.9 	"/>
	<path d="M325,36c-2.8,0-4.9-1.9-4.9-4.6v-8.9h2.1v8.8c0,1.8,1.1,2.9,2.7,2.9c1.7,0,2.7-1.1,2.7-2.9v-8.8h2.1v8.9
		C329.9,34.1,327.8,36,325,36z"/>
	<polygon points="333.9,35.9 333.9,22.4 342.6,22.4 342.6,24.3 336.1,24.3 336.1,28.2 341.6,28.2 341.6,30 336.1,30 336.1,34 
		342.6,34 342.6,35.9 	"/>
</g>
</svg>
